<?xml version="1.0" encoding="utf-8"?>
<!-- Generator: Adobe Illustrator 20.0.0, SVG Export Plug-In . SVG Version: 6.00 Build 0)  -->
<svg version="1.1" id="Layer_1" xmlns="http://www.w3.org/2000/svg" xmlns:xlink="http://www.w3.org/1999/xlink" x="0px" y="0px"
	 viewBox="0 0 148.9 112.6" style="enable-background:new 0 0 148.9 112.6;" xml:space="preserve">
<style type="text/css">
	.st0{fill:#757B82;}
	.st1{fill:#008CC1;}
	.st2{fill:#FFFFFF;}
	.st3{fill:#FFFFFF;stroke:#B8BBBE;stroke-width:0.5;stroke-miterlimit:10;}
</style>
<path class="st0" d="M-364.9-32h-36v43.2h36V-32z"/>
<path class="st1" d="M-364.9-107h-36v43.2h36V-107z"/>
<text transform="matrix(1 0 0 1 -400.421 -53.2146)"><tspan x="0" y="0" style="fill:#1E252C; font-family:'Helvetica'; font-size:7px;">PANTONE</tspan><tspan x="0" y="8.4" style="fill:#1E252C; font-family:'Helvetica'; font-size:7px;">7460 U</tspan></text>
<path class="st2" d="M95.6,0H53.3v41.8h42.3V0z"/>
<g>
	<path class="st2" d="M25.8,89.3c0,0.4-0.2,0.7-0.5,0.9c-0.4,0.3-0.8,0.5-1.3,0.9c-0.7,0.5-1.5,0.9-2.5,1.4c-1,0.4-2.1,0.8-3.3,1.1
		C17,93.8,15.6,94,14,94c-2.2,0-4.1-0.3-5.8-1c-1.7-0.7-3.2-1.6-4.4-2.7c-1.2-1.1-2.2-2.4-2.8-4c-0.6-1.5-1-3.1-1-4.7
		c0-1.6,0.3-3.2,0.9-4.7c0.6-1.5,1.6-2.8,2.8-4c1.2-1.2,2.7-2.1,4.4-2.8c1.8-0.7,3.8-1,6-1c1.6,0,3,0.2,4.2,0.5
		c1.2,0.3,2.3,0.7,3.2,1.1c0.9,0.4,1.7,0.9,2.3,1.3c0.2,0.1,0.4,0.3,0.5,0.4c0.5,0.3,0.6,1,0.2,1.5l-1.1,1.5
		c-0.3,0.5-0.9,0.6-1.4,0.3c-1.1-0.6-2.2-1.2-3.3-1.7c-1.5-0.6-3-0.9-4.6-0.9c-1.7,0-3.2,0.2-4.4,0.7c-1.3,0.5-2.3,1.1-3.2,1.9
		c-0.9,0.8-1.5,1.7-1.9,2.7c-0.4,1-0.6,2.1-0.6,3.2c0,1.1,0.2,2.1,0.7,3.1c0.4,1,1.1,1.9,1.9,2.7c0.9,0.8,1.9,1.4,3.2,1.9
		c1.3,0.5,2.7,0.7,4.3,0.7c1.4,0,2.7-0.2,4-0.6c1.3-0.4,2.6-1,3.7-1.6v-3.6h-5.6c-0.6,0-1.1-0.5-1.1-1.1v-1.8c0-0.6,0.5-1.1,1.1-1.1
		h8.5c0.6,0,1.1,0.5,1.1,1.1V89.3z"/>
	<path class="st2" d="M59.8,93.3h-2.2c-0.4,0-0.8-0.2-1-0.6l-2.4-4.3c-0.2-0.3-0.6-0.6-1-0.6h-13c-0.4,0-0.8,0.2-1,0.6l-2.3,4.3
		c-0.2,0.4-0.6,0.6-1,0.6h-2c-0.8,0-1.3-0.9-1-1.6l11.5-21.2c0.2-0.4,0.6-0.6,1-0.6h2.7c0.4,0,0.8,0.2,1,0.6l11.6,21.2
		C61.2,92.4,60.6,93.3,59.8,93.3z M46.9,74.3l-5.1,9.5H52L46.9,74.3z"/>
	<path class="st2" d="M77.2,93.3h-1.8c-0.6,0-1.1-0.5-1.1-1.1V73.8h-7.9c-0.6,0-1.1-0.5-1.1-1.1V71c0-0.6,0.5-1.1,1.1-1.1h19.8
		c0.6,0,1.1,0.5,1.1,1.1v1.8c0,0.6-0.5,1.1-1.1,1.1h-7.9v18.3C78.3,92.8,77.8,93.3,77.2,93.3z"/>
	<path class="st2" d="M116.2,93.3H97.3c-0.6,0-1.1-0.5-1.1-1.1V71c0-0.6,0.5-1.1,1.1-1.1h18.4c0.6,0,1.1,0.5,1.1,1.1v1.8
		c0,0.6-0.5,1.1-1.1,1.1h-15.5v5.4h8c0.6,0,1.1,0.5,1.1,1.1v1.8c0,0.6-0.5,1.1-1.1,1.1h-8v6.1h16c0.6,0,1.1,0.5,1.1,1.1v1.8
		C117.2,92.8,116.8,93.3,116.2,93.3z"/>
	<path class="st2" d="M146.3,74.8c-0.3,0.5-0.9,0.7-1.5,0.5c-0.2-0.1-0.4-0.2-0.6-0.3c-0.6-0.3-1.3-0.6-2-0.9
		c-0.8-0.3-1.6-0.5-2.6-0.7c-1-0.2-2.1-0.3-3.4-0.3c-2.2,0-3.8,0.3-4.9,0.8c-1.1,0.5-1.6,1.3-1.6,2.3c0,0.6,0.1,1,0.2,1.4
		c0.2,0.4,0.5,0.7,1,0.9c0.5,0.2,1.3,0.4,2.3,0.5c1,0.1,2.3,0.2,4,0.2c2.6,0,4.7,0.2,6.3,0.6c1.6,0.4,2.7,0.9,3.5,1.5
		c0.8,0.6,1.3,1.4,1.6,2.2c0.2,0.8,0.4,1.7,0.4,2.6c0,1.7-0.4,3-1.1,4.1c-0.7,1-1.6,1.8-2.7,2.4c-1.1,0.6-2.4,0.9-3.7,1.1
		c-1.4,0.2-2.7,0.3-4,0.3c-2,0-3.7-0.2-5.3-0.5c-1.5-0.3-2.9-0.7-4-1.1c-1.1-0.4-2.1-0.9-2.8-1.3c-0.3-0.2-0.6-0.4-0.8-0.5
		c-0.5-0.3-0.6-0.9-0.4-1.4l0.9-1.6c0.3-0.5,1-0.7,1.5-0.4c0.4,0.2,0.7,0.4,1.1,0.6c0.7,0.4,1.5,0.8,2.4,1.1
		c0.9,0.3,1.9,0.6,3.1,0.8c1.2,0.2,2.6,0.3,4.3,0.3c1.1,0,2-0.1,2.9-0.2c0.9-0.1,1.6-0.3,2.3-0.6c0.6-0.3,1.1-0.6,1.5-1.1
		c0.3-0.5,0.5-1,0.5-1.7c0-0.8-0.1-1.3-0.4-1.7c-0.3-0.4-0.8-0.7-1.5-0.9c-0.7-0.2-1.8-0.4-3.1-0.4c-1.3-0.1-3.1-0.1-5.3-0.2
		c-1.3,0-2.5-0.2-3.7-0.4c-1.1-0.2-2.1-0.6-2.9-1.1c-0.8-0.5-1.4-1.2-1.9-2c-0.4-0.8-0.7-1.8-0.7-3.1c0-1,0.2-1.9,0.6-2.8
		c0.4-0.9,1-1.7,1.9-2.4c0.9-0.7,2-1.2,3.3-1.7c1.4-0.4,3-0.6,5-0.6c1.4,0,2.7,0.1,4,0.4c1.2,0.3,2.3,0.5,3.3,0.9
		c1,0.3,1.9,0.7,2.6,1c0.2,0.1,0.5,0.2,0.7,0.3c0.5,0.3,0.8,0.9,0.5,1.5L146.3,74.8z"/>
</g>
<path class="st2" d="M88.5,19.9c0.6-0.3,1.2-0.6,1.6-0.9c0,0,0,0,0,0c0.7-0.5,1.1-1.3,1.1-2.1v-3.6c0-0.7-0.6-1.3-1.3-1.3h-4.4
	c-0.7,0-1.3,0.6-1.3,1.3v0c0,0.7,0.6,1.3,1.3,1.3h3.1v2.3c-0.7,0.5-1.6,0.8-2.4,1.1c-0.9,0.3-1.8,0.4-2.6,0.4c-1.1,0-2-0.2-2.8-0.5
	c-0.8-0.3-1.5-0.7-2.1-1.2c-0.6-0.5-1-1.1-1.3-1.8c-0.3-0.7-0.4-1.3-0.4-2.1c0-0.7,0.1-1.4,0.4-2.1c0.3-0.7,0.7-1.3,1.3-1.8
	c0.6-0.5,1.3-0.9,2.1-1.2c0.8-0.3,1.8-0.5,2.9-0.5c1,0,2,0.2,3,0.6c0.7,0.3,1.3,0.6,1.9,0.9C89.1,9,89.7,8.9,90,8.4l0.2-0.3
	c0.4-0.5,0.2-1.2-0.3-1.6c0,0,0,0,0,0c-0.4-0.3-0.9-0.6-1.5-0.8c-0.6-0.3-1.3-0.5-2.1-0.7c-0.8-0.2-1.7-0.3-2.7-0.3
	c-1.5,0-2.8,0.2-3.9,0.7c-1.2,0.4-2.1,1-2.9,1.8c-0.8,0.8-1.4,1.6-1.8,2.6c-0.4,0.9-0.6,1.8-0.6,2.8c0-1-0.2-1.9-0.6-2.8
	c-0.4-1-1-1.8-1.8-2.6c-0.8-0.8-1.8-1.4-2.9-1.8c-1.2-0.4-2.5-0.7-3.9-0.7c-1,0-1.9,0.1-2.7,0.3c-0.8,0.2-1.5,0.4-2.1,0.7
	c-0.6,0.3-1.1,0.6-1.5,0.8c0,0,0,0,0,0c-0.5,0.4-0.6,1.1-0.3,1.6l0.2,0.3c0.3,0.5,1,0.6,1.5,0.3c0.6-0.3,1.2-0.6,1.9-0.9
	c1-0.4,2-0.6,3-0.6c1.1,0,2.1,0.2,2.9,0.5C68.9,8,69.6,8.4,70.2,9c0.6,0.5,1,1.1,1.3,1.8c0.3,0.7,0.4,1.4,0.4,2.1
	c0,0.7-0.1,1.4-0.4,2.1c-0.3,0.7-0.7,1.2-1.3,1.8c-0.6,0.5-1.3,0.9-2.1,1.2c-0.8,0.3-1.8,0.5-2.8,0.5c-0.9,0-1.8-0.1-2.6-0.4
	c-0.9-0.3-1.7-0.6-2.4-1.1v-2.3h3.1c0.7,0,1.3-0.6,1.3-1.3v0c0-0.7-0.6-1.3-1.3-1.3H59c-0.8,0-1.4,0.6-1.4,1.4v3.5
	c0,0.8,0.4,1.6,1.1,2.1c0,0,0,0,0,0c0.5,0.3,1,0.6,1.6,0.9c0.6,0.3,1.4,0.5,2.2,0.7c0.7,0.2,1.4,0.3,2.3,0.3c-0.8,0-1.6,0.1-2.3,0.3
	c-0.8,0.2-1.5,0.5-2.2,0.7c-0.6,0.3-1.2,0.6-1.6,0.9c0,0,0,0,0,0c-0.7,0.5-1.1,1.3-1.1,2.1v3.5c0,0.8,0.6,1.4,1.4,1.4h4.3
	c0.7,0,1.3-0.6,1.3-1.3v0c0-0.7-0.6-1.3-1.3-1.3h-3.1v-2.3c0.7-0.5,1.6-0.8,2.4-1.1c0.9-0.3,1.8-0.4,2.6-0.4c1.1,0,2,0.2,2.8,0.5
	c0.8,0.3,1.5,0.7,2.1,1.2c0.6,0.5,1,1.1,1.3,1.8c0.3,0.7,0.4,1.3,0.4,2.1c0,0.7-0.1,1.4-0.4,2.1c-0.3,0.7-0.7,1.3-1.3,1.8
	c-0.6,0.5-1.3,0.9-2.1,1.2c-0.8,0.3-1.8,0.5-2.9,0.5c-1,0-2-0.2-3-0.6c-0.7-0.3-1.3-0.6-1.9-0.9c-0.5-0.3-1.1-0.1-1.5,0.3l-0.2,0.3
	c-0.4,0.5-0.2,1.2,0.3,1.6c0,0,0,0,0,0c0.4,0.3,0.9,0.6,1.5,0.8c0.6,0.3,1.3,0.5,2.1,0.7c0.8,0.2,1.7,0.3,2.7,0.3
	c1.5,0,2.8-0.2,3.9-0.7c1.2-0.4,2.1-1,2.9-1.8c0.8-0.8,1.4-1.6,1.8-2.6c0.4-0.9,0.6-1.8,0.6-2.8c0,1,0.2,1.9,0.6,2.8
	c0.4,1,1,1.8,1.8,2.6c0.8,0.8,1.8,1.4,2.9,1.8c1.2,0.4,2.5,0.7,3.9,0.7c1,0,1.9-0.1,2.7-0.3c0.8-0.2,1.5-0.4,2.1-0.7
	c0.6-0.3,1.1-0.6,1.5-0.8c0,0,0,0,0,0c0.5-0.4,0.6-1.1,0.3-1.6L90,33.4c-0.3-0.5-1-0.6-1.5-0.3c-0.6,0.3-1.2,0.6-1.9,0.9
	c-1,0.4-2,0.6-3,0.6c-1.1,0-2.1-0.2-2.9-0.5c-0.8-0.3-1.5-0.7-2.1-1.2c-0.6-0.5-1-1.1-1.3-1.8C77.2,30.4,77,29.7,77,29
	c0-0.7,0.1-1.4,0.4-2.1c0.3-0.7,0.7-1.2,1.3-1.8c0.6-0.5,1.3-0.9,2.1-1.2c0.8-0.3,1.8-0.5,2.8-0.5c0.9,0,1.8,0.1,2.6,0.4
	c0.9,0.3,1.7,0.6,2.4,1.1v2.3h-3.1c-0.7,0-1.3,0.6-1.3,1.3v0c0,0.7,0.6,1.3,1.3,1.3h4.3c0.8,0,1.4-0.6,1.4-1.4v-3.5
	c0-0.8-0.4-1.6-1.1-2.1c0,0,0,0,0,0c-0.5-0.3-1-0.6-1.6-0.9c-0.6-0.3-1.4-0.5-2.2-0.7c-0.7-0.2-1.4-0.3-2.3-0.3
	c0.8,0,1.6-0.1,2.3-0.3C87.1,20.4,87.9,20.1,88.5,19.9z M79.8,21.5c-1.1,0.4-2.1,1-2.9,1.8c-0.8,0.7-1.4,1.6-1.8,2.6
	c-0.4,0.9-0.6,1.9-0.6,2.9c0-1-0.2-2-0.6-2.9c-0.4-1-1-1.8-1.8-2.6c-0.8-0.7-1.8-1.3-2.9-1.8c-1-0.4-2.2-0.6-3.5-0.7
	c1.3,0,2.5-0.2,3.5-0.7c1.1-0.4,2.1-1,2.9-1.8c0.8-0.7,1.4-1.6,1.8-2.6c0.4-0.9,0.6-1.9,0.6-2.9c0,1,0.2,2,0.6,2.9
	c0.4,1,1,1.8,1.8,2.6c0.8,0.7,1.8,1.3,2.9,1.8c1,0.4,2.2,0.6,3.5,0.7C82,20.9,80.8,21.1,79.8,21.5z"/>
<g>
	<path class="st2" d="M22.1,110.9h-0.8v-3.2h-4.4v3.2H16V104h0.8v2.9h4.4V104h0.8V110.9z"/>
	<path class="st2" d="M25.3,107.5c0-0.5,0.1-0.9,0.3-1.4c0.2-0.4,0.4-0.8,0.8-1.1c0.3-0.3,0.7-0.6,1.2-0.8c0.5-0.2,0.9-0.3,1.5-0.3
		c0.5,0,1,0.1,1.5,0.3c0.5,0.2,0.8,0.5,1.2,0.8c0.3,0.3,0.6,0.7,0.8,1.1c0.2,0.4,0.3,0.9,0.3,1.4c0,0.5-0.1,0.9-0.3,1.4
		c-0.2,0.4-0.4,0.8-0.8,1.1c-0.3,0.3-0.7,0.6-1.2,0.8c-0.5,0.2-0.9,0.3-1.5,0.3s-1-0.1-1.5-0.3c-0.5-0.2-0.8-0.5-1.2-0.8
		c-0.3-0.3-0.6-0.7-0.8-1.1C25.4,108.4,25.3,108,25.3,107.5z M26.1,107.5c0,0.4,0.1,0.7,0.2,1.1c0.1,0.3,0.4,0.6,0.6,0.9
		c0.3,0.3,0.6,0.5,0.9,0.6c0.4,0.1,0.7,0.2,1.2,0.2c0.4,0,0.8-0.1,1.2-0.2c0.4-0.1,0.7-0.3,0.9-0.6c0.3-0.3,0.5-0.5,0.6-0.9
		c0.1-0.3,0.2-0.7,0.2-1.1s-0.1-0.7-0.2-1.1c-0.1-0.3-0.4-0.6-0.6-0.9c-0.3-0.3-0.6-0.5-0.9-0.6s-0.7-0.2-1.2-0.2
		c-0.4,0-0.8,0.1-1.2,0.2c-0.4,0.1-0.7,0.3-0.9,0.6c-0.3,0.3-0.5,0.6-0.6,0.9C26.2,106.7,26.1,107.1,26.1,107.5z"/>
	<path class="st2" d="M38.4,110.9h-0.8v-6.1h-2.5V104H41v0.8h-2.5V110.9z"/>
	<path class="st2" d="M49.6,110.9h-5.9V104h5.7v0.8h-4.9v2.1h2.6v0.8h-2.6v2.4h5.1V110.9z"/>
	<path class="st2" d="M57.7,110.9h-5.2V104h0.8v6.1h4.3V110.9z"/>
	<path class="st2" d="M76.8,110.9h-1l-2.5-3.9l-1.9,1.8v2.1h-0.8V104h0.8v3.8l3.9-3.8h1.1l-2.4,2.4L76.8,110.9z"/>
	<path class="st2" d="M85.1,110.9h-5.9V104h5.7v0.8H80v2.1h2.6v0.8H80v2.4h5.1V110.9z"/>
	<path class="st2" d="M90.6,110.9h-0.8v-3.2l-2.9-3.7h1.1l2.3,2.9l2.3-2.9h1.1l-3,3.7V110.9z"/>
	<path class="st2" d="M105.8,110.9H105l-1.5-5.3h0l-1.4,5.3h-0.7l-2.4-6.9h0.8l1.9,5.5h0l1.4-5.5h0.8l1.5,5.5h0l1.8-5.5h0.8
		L105.8,110.9z"/>
	<path class="st2" d="M116.2,110.9h-5.9V104h5.7v0.8h-4.9v2.1h2.6v0.8h-2.6v2.4h5.1V110.9z"/>
	<path class="st2" d="M122.4,106.9c0.3,0,0.6,0,0.9,0.1s0.6,0.2,0.8,0.3c0.2,0.2,0.4,0.4,0.6,0.6c0.2,0.3,0.2,0.6,0.2,1
		c0,0.4-0.1,0.7-0.3,1c-0.2,0.3-0.4,0.5-0.7,0.7s-0.7,0.3-1.1,0.4c-0.4,0.1-0.8,0.1-1.2,0.1c-0.5,0-1-0.1-1.4-0.2
		c-0.4-0.1-0.7-0.3-1-0.4c-0.3-0.2-0.5-0.3-0.7-0.5c-0.2-0.2-0.3-0.3-0.4-0.4l0.6-0.6c0.1,0.1,0.2,0.2,0.4,0.3
		c0.1,0.1,0.3,0.3,0.6,0.4s0.5,0.2,0.8,0.3c0.3,0.1,0.7,0.1,1.1,0.1c0.4,0,0.7,0,1-0.1s0.6-0.2,0.8-0.3c0.2-0.1,0.4-0.3,0.5-0.4
		c0.1-0.2,0.2-0.4,0.2-0.6c0-0.2,0-0.4-0.1-0.5c-0.1-0.2-0.2-0.3-0.4-0.4c-0.2-0.1-0.3-0.2-0.5-0.2c-0.2,0-0.4-0.1-0.5-0.1h-1.5
		c-0.3,0-0.6,0-0.9-0.1c-0.3-0.1-0.6-0.2-0.8-0.3c-0.2-0.1-0.4-0.3-0.5-0.5c-0.1-0.2-0.2-0.5-0.2-0.8c0-0.2,0.1-0.5,0.2-0.7
		c0.1-0.2,0.3-0.5,0.5-0.7c0.2-0.2,0.5-0.4,0.9-0.5c0.4-0.1,0.8-0.2,1.4-0.2c0.4,0,0.7,0,1.1,0.1s0.6,0.2,0.8,0.3
		c0.2,0.1,0.4,0.2,0.6,0.3c0.2,0.1,0.3,0.2,0.4,0.3l-0.5,0.6c-0.1-0.1-0.3-0.2-0.4-0.3c-0.2-0.1-0.3-0.2-0.5-0.3
		c-0.2-0.1-0.4-0.2-0.6-0.2c-0.2-0.1-0.5-0.1-0.8-0.1c-0.4,0-0.7,0-1,0.1c-0.3,0.1-0.5,0.2-0.7,0.3c-0.2,0.1-0.3,0.3-0.4,0.4
		c-0.1,0.2-0.1,0.3-0.1,0.4c0,0.2,0.1,0.4,0.2,0.5c0.1,0.1,0.3,0.2,0.5,0.3c0.2,0.1,0.4,0.1,0.6,0.1c0.2,0,0.5,0,0.7,0H122.4z"/>
	<path class="st2" d="M130.3,110.9h-0.8v-6.1H127V104h5.9v0.8h-2.5V110.9z"/>
</g>
<g>
	<path class="st2" d="M65.6,59.4h-0.8v-6.1h-2.5v-0.8h5.9v0.8h-2.5V59.4z"/>
	<path class="st2" d="M77.1,59.4h-0.8v-3.2h-4.4v3.2H71v-6.9h0.8v2.9h4.4v-2.9h0.8V59.4z"/>
	<path class="st2" d="M86.6,59.4h-5.9v-6.9h5.7v0.8h-4.9v2.1h2.6v0.8h-2.6v2.4h5.1V59.4z"/>
</g>
<line class="st3" x1="63.5" y1="112.6" x2="63.5" y2="102.3"/>
<text transform="matrix(1 0 0 1 -400.421 21.7854)"><tspan x="0" y="0" style="fill:#1E252C; font-family:'Helvetica'; font-size:7px;">PANTONE</tspan><tspan x="0" y="8.4" style="fill:#1E252C; font-family:'Helvetica'; font-size:7px;">431 U</tspan></text>
</svg>
