<?xml version="1.0" encoding="utf-8"?>
<!-- Generator: Adobe Illustrator 21.0.0, SVG Export Plug-In . SVG Version: 6.00 Build 0)  -->
<svg version="1.1" id="Layer_1" xmlns="http://www.w3.org/2000/svg" xmlns:xlink="http://www.w3.org/1999/xlink" x="0px" y="0px"
	 viewBox="0 0 480.4 211" style="enable-background:new 0 0 480.4 211;" xml:space="preserve">
<style type="text/css">
	.st0{fill:#003B4C;}
	.st1{fill:#008CC1;}
	.st2{fill:#E24301;}
</style>
<path class="st0" d="M261.2,147.8l1.4-7.7l0.4-2.5l1.2-6.6c0.3-1.8,0.2-3.7-0.5-5.4c-4.1-10.5-5.2-21.9-3.2-33l0.9,0.2l0.3-1.5
	c0.1-0.3-0.1-0.6-0.3-0.8c-0.2-0.2-0.2-0.4-0.2-0.6l1-3.3c0.4-1.2-0.4-2.5-1.7-2.7l-3.9-0.7c-1.3-0.2-2.5,0.7-2.5,2l-0.2,3.5
	c0,0.2-0.2,0.4-0.4,0.5c-0.3,0.1-0.5,0.4-0.6,0.7l-0.3,1.5l0.9,0.1c-2,11.1-6.9,21.4-14.4,29.9c-1.2,1.4-2,3.1-2.3,4.9l-0.9,4.8
	l-0.5,2.8l-0.6,3.3l-0.5,3.1l-2.5,14.3L261.2,147.8z"/>
<path class="st1" d="M234.9,150.9c-3.6,2.7-7.8,4.2-12.6,4.8c5.7,0.5,12.1-0.4,18.8-2.2c13-3.6,24.7-5.5,32.8-2.7
	c-8.2-6.1-19.8-6.3-32.8-2.7L234.9,150.9z"/>
<path class="st0" d="M233.8,153.3c-0.4-0.9-0.9-1.8-1.6-2.5c-1.5-1.6-2.9-3.3-4.1-5.1c-0.2-0.2-0.3-0.5-0.4-0.7
	c-1-1.5-1.9-3-2.8-4.5c-0.6-1.1-1.1-2.1-1.6-3.3c-0.3-0.6-0.5-1.2-0.8-1.9c-0.2-0.5-0.4-1-0.6-1.5c-0.8-2.2-1.5-4.5-1.9-6.9
	c0,0,0-0.1,0-0.1l0.8-0.2l-0.3-1.2c-0.1-0.3-0.2-0.5-0.5-0.6c-0.2-0.1-0.3-0.2-0.3-0.4l-0.3-2.9c-0.1-1.1-1.1-1.8-2.2-1.6l-3.2,0.7
	c-1,0.2-1.7,1.3-1.3,2.3l0.9,2.7c0,0.2,0,0.4-0.1,0.5c-0.2,0.2-0.3,0.5-0.2,0.7l0.3,1.2l0.8-0.2c1,5.1,1.3,10.3,0.7,15.4
	c0,0.2-0.1,0.4-0.1,0.6c-0.2,1.5-0.4,3-0.7,4.5c-0.4,2.1-1,4.2-1.7,6.2c-0.2,0.6-0.3,1.1-0.4,1.7c-0.1,0.5-0.1,0.9-0.1,1.4
	c0,0.2,0,0.4,0.1,0.6c1.2,3.6,0.9,3.2,2.9,3.7c2,0.5,16.9-1,19-1.7C236.1,160,236.9,157.5,233.8,153.3z"/>
<path class="st1" d="M188.9,165.6c14.5,10.8,35.2,11.1,58.3,4.7c23-6.4,43.8-9.7,58.3-4.7c-14.5-10.8-35.2-11.1-58.3-4.7
	C224.2,167.3,203.4,170.6,188.9,165.6z"/>
<path class="st1" d="M203.2,159c8.2,6.1,19.8,6.3,32.8,2.7c13-3.6,24.7-5.5,32.8-2.7c-8.2-6.1-19.8-6.3-32.8-2.7
	C223.1,159.9,211.4,161.8,203.2,159z"/>
<path class="st1" d="M166,163.5c4.1,3,9.9,3.1,16.4,1.3c6.5-1.8,12.3-2.7,16.4-1.3c-4.1-3-9.9-3.1-16.4-1.3
	C175.9,164,170.1,164.9,166,163.5z"/>
<path class="st1" d="M235.8,159.6c-7.2,5.4-17.6,5.6-29.1,2.4c-11.5-3.2-21.9-4.8-29.1-2.4c7.2-5.4,17.6-5.6,29.1-2.4
	C218.2,160.4,228.5,162,235.8,159.6z"/>
<g>
	<path class="st0" d="M35.6,138.2v9.9h-8.9l-6-4.2h8.8v-12L35.6,138.2z M40.8,111.6h-5.2v9.9c-0.8,0.1-1.6,0.1-2.4,0.1h-3.7v-14.2h5
		c3.4,0,5.9,1.4,6.9,4.3C41.3,111.6,41,111.6,40.8,111.6z M53,107c4.4,3,6.1,6.4,6.1,11.7c0,7.4-4.8,13-12.3,15.3l14.3,14.1h-12
		l-6-4.2h12.2l-14.4-14.2c7.3-2.3,12.1-7.9,12.1-15.4c0-3.7-0.9-6.9-3.1-9.4L53,107z"/>
	<path class="st0" d="M95.3,134.9c-3.8-0.6-7.1-3.7-7.1-10V99.6l6.1,4.3v25.4C94.3,131.5,94.6,133.4,95.3,134.9z M90.3,143.8
		c1.8,0.6,4.2,0.9,6.4,0.9c10.6,0,19.5-6.4,19.5-20.3V99.6l6.1,4.3v24.9c0,13.8-8.8,20.1-19.3,20.1c-3.8,0-6.4-0.8-9.1-2.6
		L90.3,143.8z"/>
	<path class="st0" d="M152.4,143.9l1.8-26.4l5.9,8.7l-1.5,22h-9.1l-6-4.2H152.4z M154.3,100.2l5.6,4.5l8.4,12.7l-1.2,1.9
		L154.3,100.2z M181,130.4l-4.5,6.5h-4l-6-4.2h3.4l10.3-15.2L181,130.4z M189.6,99.6l6.1,4.2l3.5,44.3h-9.1l-6-4.2h9.1L189.6,99.6z"
		/>
	<path class="st0" d="M295.6,138.2v9.9h-8.9l-6-4.2h8.8v-12L295.6,138.2z M300.7,111.6h-5.2v9.9c-0.8,0.1-1.6,0.1-2.4,0.1h-3.7
		v-14.2h5c3.4,0,5.9,1.4,6.9,4.3C301.2,111.6,301,111.6,300.7,111.6z M312.9,107c4.4,3,6.1,6.4,6.1,11.7c0,7.4-4.8,13-12.3,15.3
		l14.3,14.1h-12l-6-4.2h12.2l-14.4-14.2c7.3-2.3,12.1-7.9,12.1-15.4c0-3.7-0.9-6.9-3.1-9.4L312.9,107z"/>
	<path class="st0" d="M368.9,111.7c-1.2-0.4-2.6-0.6-4-0.6c-7.4,0-13.7,5.7-13.7,14.3c0,2.9,0.5,5.9,1.6,8.3
		c-4.5-2.1-7.7-6.7-7.7-12.8c0-8.4,6.2-14,13.5-14C362.7,106.9,366.4,108.7,368.9,111.7z M364.9,148.9c-4.8,0-8.3-1-13.1-4.3l-2-1.4
		c2.6,0.9,5.8,1.4,8.8,1.4c13.7,0,24.5-9.8,24.5-23.7c0-5.9-1.9-10.6-4.7-14.4l3.2,2.4c3.8,2.8,7.6,8.2,7.6,16.4
		C389.2,139.1,378.4,148.9,364.9,148.9z"/>
	<path class="st0" d="M412.6,99.8l5.5,3.8l4.4,14.6l-2.3,7L412.6,99.8z M437.5,127.4l-6.8,20.7h-6.7l-6-4.2h6.6l9.3-27.8
		L437.5,127.4z M438.7,99.8l5.5,3.8l5.1,15.2l-2,6.4L438.7,99.8z M451.7,143.9l14.8-44.4l6.2,4.3l-14.8,44.4h-6.7l-6-4.2H451.7z"/>
</g>
<g>
	<path class="st2" d="M36.9,99L19.5,111v-1.5l15.2-10.6C35.4,98.9,36.2,98.9,36.9,99z M19.5,106.4l10.8-7.6h2.2l-13,9.1V106.4z
		 M19.5,103.4l6.4-4.5h2.2l-8.6,6V103.4z M19.5,100.3l2-1.4h2.1l-4.2,3V100.3z M28.6,107.8l-9.1,6.4v-1.5l19.1-13.4
		c0.6,0.1,1.2,0.2,1.7,0.4l-9.9,6.9h-1.8V107.8z M19.5,115.7l9.1-6.4v1.6l-9.1,6.3V115.7z M52,112.9l-32.5,22.7v-1.6l16.9-11.8
		c2.7-0.5,4.7-1.9,5.7-4l9.7-6.8C51.9,112,52,112.5,52,112.9z M19.5,118.7l9.1-6.3v1.5l-9.1,6.4V118.7z M19.5,121.8l9.1-6.3v1.5
		l-9.1,6.4V121.8z M19.5,124.9l9.1-6.3v1.5l-9.1,6.3V124.9z M19.5,128l9.1-6.4v0.9h0.8l-9.9,6.9V128z M33.8,122.6l-14.3,10v-1.5
		l12.1-8.5H33.8z M19.5,137.2l9.1-6.4v1.6l-9.1,6.4V137.2z M19.5,140.2l9.1-6.4v1.6l-9.1,6.4V140.2z M20.1,143l8.5-6v1.5l-6.4,4.5
		H20.1z M24.4,143l4.2-2.9v1.5l-2,1.4H24.4z M52,116l-21.8,15.2l-0.9-0.9l22.8-16C52.1,114.9,52,115.6,52,116z M51.1,119.7
		l-19.2,13.4l-0.9-0.9l20.7-14.5C51.6,118.3,51.4,119.1,51.1,119.7z M43.2,100.6l-8.4,5.9c-0.7,0-1.4,0-2.2,0l9.2-6.4
		C42.3,100.2,42.8,100.4,43.2,100.6z M32.8,134l6.5-4.5l0.9,0.9l-6.5,4.5L32.8,134z M34.6,135.8l6.5-4.6l0.9,0.9l-6.5,4.6
		L34.6,135.8z M36.4,137.7l6.5-4.6l0.9,0.9l-6.7,4.6L36.4,137.7z M45.7,102l-7.4,5.1c-0.5-0.2-1-0.3-1.5-0.4l7.7-5.4
		C44.9,101.5,45.4,101.8,45.7,102z M38.2,139.5l6.6-4.7l0.9,0.9l-6.6,4.6L38.2,139.5z M47.7,103.6l-7,4.9c-0.3-0.3-0.7-0.6-1.1-0.8
		l7.2-5C47.1,103,47.4,103.3,47.7,103.6z M39.9,129l10.1-7.1C48,125.4,44.5,127.8,39.9,129z M39.9,141.3l6.7-4.7l0.9,0.9l-6.7,4.7
		L39.9,141.3z M49.3,105.5l-7.2,5.1c-0.2-0.3-0.4-0.8-0.6-1.1l7.1-5C48.8,104.8,49.1,105.2,49.3,105.5z M42.1,143l6.4-4.5l0.9,0.9
		l-5.2,3.6H42.1z M50.6,107.7l-7.8,5.6c-0.1-0.4-0.2-1-0.3-1.4l7.5-5.3C50.3,107,50.4,107.3,50.6,107.7z M51.5,110.1l-8.7,6.1
		c0.1-0.5,0.1-1,0.1-1.5l8.2-5.8C51.3,109.3,51.4,109.8,51.5,110.1z M46.4,143l3.8-2.7l0.9,0.9l-2.6,1.8H46.4z M50.7,143l1.4-0.9
		L53,143H50.7z"/>
	<path class="st2" d="M87.2,98.9v0.8l-9.1,6.4v-1.5l8.1-5.7H87.2z M78.2,101.5l3.6-2.6H84l-5.9,4.1V101.5z M78.2,98.9h1.4l-1.4,1.1
		V98.9z M78.2,107.6l9.1-6.4v1.5l-9.1,6.4V107.6z M78.2,110.7l9.1-6.4v1.5l-9.1,6.5V110.7z M78.2,113.7l9.1-6.4v1.6l-9.1,6.4V113.7z
		 M78.2,116.8l9.1-6.5v1.6l-9.1,6.5V116.8z M78.2,119.9l9.1-6.5v1.5l-9.1,6.5V119.9z M78.2,123l9.1-6.4v1.5l-9.1,6.4V123z
		 M78.2,126.1l9-6.5v1.5l-8.9,6.2C78.3,127.2,78.2,126.5,78.2,126.1z M78.5,128.8l8.7-6.1v1.6l-8.4,5.9
		C78.7,129.9,78.6,129.2,78.5,128.8z M79.1,131.5l8.1-5.6c0,0.5,0.1,1,0.1,1.4l-7.8,5.4C79.4,132.4,79.3,131.9,79.1,131.5z
		 M80.1,134l7.6-5.4c0.1,0.4,0.3,0.9,0.4,1.3l-7.4,5.2C80.4,134.7,80.2,134.3,80.1,134z M81.3,136.2l7.2-5.1
		c0.2,0.4,0.4,0.7,0.6,1.1l-7.2,5C81.7,136.8,81.5,136.5,81.3,136.2z M82.9,138.3l7-5.2c0.3,0.3,0.7,0.7,1,0.9l-7.2,5.1L82.9,138.3z
		 M93.4,135.4l-7.6,5.3c-0.4-0.3-0.7-0.5-1-0.8l7.3-5.2C92.4,135,92.9,135.2,93.4,135.4z M87,141.4l8.1-5.6c0.5,0.1,1.4,0.1,2,0.1
		l-8.7,6.1C87.8,141.9,87.4,141.6,87,141.4z M89.6,142.6l10.3-7.2c1.5-0.5,2.8-1.4,3.9-2.7l11.4-8c0,0.5,0,1.1-0.1,1.6l-24,16.8
		C90.7,142.9,90.1,142.7,89.6,142.6z M92.8,143.4l22.1-15.5c-0.1,0.5-0.2,1.2-0.3,1.7l-20.1,13.9C93.9,143.6,93.3,143.5,92.8,143.4z
		 M113.5,133.5l-14.3,10c-0.9,0.1-1.7,0.1-2.5,0.1l17.5-12.3C114,132.2,113.8,132.8,113.5,133.5z M102.2,143l10-7
		C109.8,139.7,106.3,142,102.2,143z M105.8,128.2l9.4-6.5v1.5l-9.9,7C105.5,129.5,105.7,128.9,105.8,128.2z M106.1,124.9l9.1-6.3
		v1.5l-9.1,6.4C106.1,126,106.1,125.5,106.1,124.9z M106.1,103.4l6.4-4.5h2.2l-8.6,6V103.4z M106.1,100.3l2-1.4h2.1l-4.2,3V100.3z
		 M106.1,106.4l9.1-6.4v1.5l-9.1,6.4V106.4z M106.1,109.5l9.1-6.4v1.5l-9.1,6.4V109.5z M106.1,112.6l9.1-6.4v1.6l-9.1,6.4V112.6z
		 M106.1,115.7l9.1-6.4v1.6l-9.1,6.4V115.7z M106.1,118.7l9.1-6.4v1.5l-9.1,6.4V118.7z M106.1,121.8l9.1-6.3v1.5l-9.1,6.4V121.8z"/>
	<path class="st2" d="M142.2,143l0-0.4l9.8-6.8l-0.1,1.5l-8.2,5.7H142.2z M142.5,139.4l9.7-6.9l-0.1,1.6l-9.8,6.9L142.5,139.4z
		 M142.8,136l9.7-6.7l-0.1,1.5l-9.7,6.7L142.8,136z M143.1,132.7l9.6-6.7l-0.1,1.8l-9.6,6.6L143.1,132.7z M143.3,129.5l9.6-6.8
		l-0.1,1.8l-9.6,6.6L143.3,129.5z M143.6,126.1l9.5-6.6l-0.1,1.7l-9.6,6.8L143.6,126.1z M143.8,122.9l9.5-6.8l-0.1,1.7l-9.5,6.7
		L143.8,122.9z M144,121.4l0.1-1.6l15.1-10.6l0.7,1L144,121.4z M144.3,116.5l13.5-9.5l0.7,1l-14.3,10.1L144.3,116.5z M144.6,113.1
		l11.8-8.3l0.7,1.1l-12.6,8.7L144.6,113.1z M144.9,110l10.1-7.2l0.7,1l-11,7.7L144.9,110z M145.1,106.7l8.5-6l0.7,1.1l-9.3,6.5
		L145.1,106.7z M153,99.7l-7.7,5.4l0.1-1.6l6.5-4.7h0.6L153,99.7z M145.7,100.1l1.7-1.2h2.3l-4.1,2.8L145.7,100.1z M145.9,143
		l5.9-4.2l-0.1,1.8l-3.6,2.4H145.9z M150.3,143l1.3-0.9l-0.1,0.9H150.3z M154.1,115.7l6.5-4.5l0.7,1l-6.4,4.6L154.1,115.7z
		 M155.5,117.8l6.5-4.5l0.7,1.1l-6.5,4.5L155.5,117.8z M157,119.9l6.5-4.5l0.7,1l-6.5,4.5L157,119.9z M158.3,122l6.4-4.6l0.8,1.1
		L159,123L158.3,122z M159.7,124l6.5-4.5l0.7,1l-6.4,4.5L159.7,124z M161.2,126.1l28-19.5l0.1,1.4l-27.4,19.3L161.2,126.1z
		 M162.5,128.2l17.3-11.9l-2,3l-14.6,10.1L162.5,128.2z M164,130.4l11.9-8.3l-1.9,2.8l-9.3,6.6L164,130.4z M166.3,131.7l5.9-4.1
		l-2,2.9l-1.7,1.1H166.3z M169.7,117.1l19.2-13.5l0.1,1.5L167.8,120L169.7,117.1z M173.6,111.3l15.1-10.5l0.1,1.5l-17.1,12
		L173.6,111.3z M188.6,99.3l-13,9.1l1.9-2.9l9.4-6.6h1.6L188.6,99.3z M181.3,99.7l1.2-0.8h2.2l-5.4,3.8L181.3,99.7z M180.9,115.6
		l8.5-6.1l0.1,1.5l-8.5,5.9L180.9,115.6z M181.1,118.3l8.5-6l0.1,1.6l-8.5,6L181.1,118.3z M181.3,121.3l8.6-5.9l0.1,1.5l-8.6,5.8
		L181.3,121.3z M181.5,124.1l8.6-5.9l0.1,1.5l-8.6,5.8L181.5,124.1z M181.7,127.3l8.6-6l0.1,1.3l-8.6,6.1L181.7,127.3z M181.9,130.1
		l8.7-6.1l0.1,1.6l-8.7,5.9L181.9,130.1z M182.1,133.1l8.7-6.2l0.1,1.4l-8.7,6.2L182.1,133.1z M182.3,136l8.7-6.1l0.1,1.4l-8.7,6.4
		L182.3,136z M182.5,139l8.7-6.3l0.1,1.5l-8.8,6.2L182.5,139z M182.7,141.9l8.8-6.4l0.1,1.6l-8.3,5.9h-0.6L182.7,141.9z M185.5,143
		l6.2-4.6l0.1,1.5l-4.2,3.1H185.5z M189.9,143l2.1-1.6l0.1,1.6H189.9z"/>
	<path class="st2" d="M296.8,99L279.4,111v-1.5l15.2-10.6C295.4,98.9,296.1,98.9,296.8,99z M279.4,106.4l10.8-7.6h2.2l-13,9.1V106.4
		z M279.4,103.4l6.4-4.5h2.2l-8.6,6V103.4z M279.4,100.3l2-1.4h2.1l-4.2,3V100.3z M288.5,107.8l-9.1,6.4v-1.5l19.1-13.4
		c0.6,0.1,1.2,0.2,1.7,0.4l-9.9,6.9h-1.8V107.8z M279.4,115.7l9.1-6.4v1.6l-9.1,6.3V115.7z M311.9,112.9l-32.5,22.7v-1.6l16.9-11.8
		c2.7-0.5,4.7-1.9,5.7-4l9.7-6.8C311.8,112,311.9,112.5,311.9,112.9z M279.4,118.7l9.1-6.3v1.5l-9.1,6.4V118.7z M279.4,121.8
		l9.1-6.3v1.5l-9.1,6.4V121.8z M279.4,124.9l9.1-6.3v1.5l-9.1,6.3V124.9z M279.4,128l9.1-6.4v0.9h0.8l-9.9,6.9V128z M293.7,122.6
		l-14.3,10v-1.5l12.1-8.5H293.7z M279.4,137.2l9.1-6.4v1.6l-9.1,6.4V137.2z M279.4,140.2l9.1-6.4v1.6l-9.1,6.4V140.2z M280,143
		l8.5-6v1.5l-6.4,4.5H280z M284.4,143l4.2-2.9v1.5l-2,1.4H284.4z M311.9,116l-21.8,15.2l-0.9-0.9l22.8-16
		C312,114.9,311.9,115.6,311.9,116z M311,119.7l-19.2,13.4l-0.9-0.9l20.7-14.5C311.5,118.3,311.3,119.1,311,119.7z M303.1,100.6
		l-8.4,5.9c-0.7,0-1.4,0-2.2,0l9.2-6.4C302.2,100.2,302.7,100.4,303.1,100.6z M292.7,134l6.5-4.5l0.9,0.9l-6.5,4.5L292.7,134z
		 M294.6,135.8l6.5-4.6l0.9,0.9l-6.5,4.6L294.6,135.8z M296.3,137.7l6.5-4.6l0.9,0.9l-6.7,4.6L296.3,137.7z M305.6,102l-7.4,5.1
		c-0.5-0.2-1-0.3-1.5-0.4l7.7-5.4C304.8,101.5,305.3,101.8,305.6,102z M298.1,139.5l6.6-4.7l0.9,0.9l-6.6,4.6L298.1,139.5z
		 M307.6,103.6l-7,4.9c-0.3-0.3-0.7-0.6-1.1-0.8l7.2-5C307,103,307.3,103.3,307.6,103.6z M299.8,129l10.1-7.1
		C307.9,125.4,304.4,127.8,299.8,129z M299.8,141.3l6.7-4.7l0.9,0.9l-6.7,4.7L299.8,141.3z M309.3,105.5l-7.2,5.1
		c-0.2-0.3-0.4-0.8-0.6-1.1l7.1-5C308.8,104.8,309.1,105.2,309.3,105.5z M302,143l6.4-4.5l0.9,0.9l-5.2,3.6H302z M310.5,107.7
		l-7.8,5.6c-0.1-0.4-0.2-1-0.3-1.4l7.5-5.3C310.2,107,310.4,107.3,310.5,107.7z M311.4,110.1l-8.7,6.1c0.1-0.5,0.1-1,0.1-1.5
		l8.2-5.8C311.2,109.3,311.4,109.8,311.4,110.1z M306.3,143l3.8-2.7l0.9,0.9l-2.6,1.8H306.3z M310.7,143l1.4-0.9l0.9,0.9H310.7z"/>
	<path class="st2" d="M344.9,115.9l-9.9,7c0-0.5-0.1-0.9-0.1-1.4l10.7-7.5C345.3,114.7,345.1,115.3,344.9,115.9z M347.5,111
		l-12.6,8.8c0-0.4,0-0.9,0.1-1.4l28.1-19.8c0.6,0.1,1.1,0.2,1.6,0.3l-11.3,8C351.1,107.7,349.2,109.1,347.5,111z M344.2,119.5
		l-8.8,6.1c-0.1-0.3-0.2-0.8-0.2-1.3l9.3-6.4C344.3,118.4,344.2,118.9,344.2,119.5z M361.3,98.3l-25.9,18.2c0.1-0.6,0.2-1.1,0.4-1.8
		l23.6-16.6C360,98.2,360.6,98.2,361.3,98.3z M344.2,122.6l-8.1,5.6c-0.1-0.3-0.3-0.8-0.4-1.3l8.4-5.8
		C344.1,121.6,344.2,122,344.2,122.6z M357,98.2l-20.6,14.5c0.3-0.8,0.6-1.5,0.9-2.1l17.2-12.1C355.3,98.3,356.3,98.2,357,98.2z
		 M344.7,125.2l-7.6,5.4c-0.2-0.3-0.3-0.7-0.5-1.1l7.9-5.5C344.5,124.5,344.6,124.9,344.7,125.2z M345.6,127.7l-7.3,5.2
		c-0.2-0.3-0.4-0.7-0.6-1l7.5-5.3C345.2,127,345.4,127.4,345.6,127.7z M339.6,135c-0.2-0.3-0.5-0.6-0.7-1l7.2-5.1
		c0.2,0.4,0.4,0.7,0.7,1L339.6,135z M351.3,99.1l-12.2,8.6c1-1.4,2.4-2.9,3.8-4.2l2.7-1.9C347.4,100.6,349.2,99.7,351.3,99.1z
		 M348.5,131.8l-7.1,5c-0.3-0.3-0.6-0.6-0.8-0.9l7.1-5C347.9,131.2,348.1,131.5,348.5,131.8z M350.5,133.5l-7.3,5
		c-0.4-0.3-0.7-0.6-0.9-0.8l7.1-5C349.7,133,350.1,133.3,350.5,133.5z M353,134.8l-7.5,5.3c-0.3-0.2-0.7-0.4-1.1-0.7l7.3-5.2
		C352,134.4,352.6,134.7,353,134.8z M356.1,135.7l-8.2,5.7c-0.4-0.2-0.9-0.4-1.3-0.6l7.8-5.5C354.9,135.5,355.5,135.6,356.1,135.7z
		 M358.1,135.9c0.7,0,1.5,0,2.2-0.1l-9.6,6.7c-0.5-0.2-0.9-0.3-1.4-0.5L358.1,135.9z M382,123.8l-28,19.5c-0.6-0.1-1.1-0.2-1.6-0.3
		l11.4-8c2.2-0.8,4-2.1,5.4-3.7l12.9-9C382.1,122.7,382.1,123.3,382,123.8z M381.3,127.3l-23.5,16.4c-0.7,0-1.3-0.1-1.9-0.1
		l25.8-18.1C381.6,126.1,381.5,126.7,381.3,127.3z M367.9,99.8l-8.8,6.1c-0.8,0-1.5,0-2.2,0.1l9.6-6.7
		C366.9,99.5,367.4,99.6,367.9,99.8z M379.6,131.6l-17.1,11.8c-0.8,0.1-1.6,0.2-2.4,0.3l20.5-14.3
		C380.3,130,380.1,130.8,379.6,131.6z M370.5,101l-7.8,5.5c-0.5-0.2-1-0.3-1.6-0.3l8.2-5.7C369.7,100.6,370.1,100.8,370.5,101z
		 M372.8,102.5l-7.4,5.2c-0.3-0.2-0.8-0.4-1.3-0.6l7.5-5.3C372.1,102,372.5,102.3,372.8,102.5z M366,142.6l11.9-8.3
		C375,138.3,371,141.1,366,142.6z M374.9,104.1l-7.1,5c-0.3-0.3-0.7-0.5-1-0.8l7.2-5.1C374.3,103.6,374.6,103.9,374.9,104.1z
		 M376.7,105.9l-7.1,5c-0.3-0.3-0.5-0.6-0.8-0.9l7.1-5C376.2,105.3,376.5,105.7,376.7,105.9z M378.2,107.9L371,113
		c-0.2-0.3-0.4-0.6-0.6-1l7.2-5C377.8,107.3,378,107.6,378.2,107.9z M382.2,120.5l-10.8,7.6c0.3-0.7,0.7-1.4,0.8-2.1l9.9-6.9
		C382.1,119.6,382.2,120.2,382.2,120.5z M379.5,110.1l-7.5,5.3c-0.1-0.4-0.3-0.8-0.5-1.2l7.4-5.2
		C379.1,109.3,379.4,109.8,379.5,110.1z M380.6,112.4l-7.9,5.6c-0.1-0.4-0.2-0.9-0.3-1.3l7.6-5.5C380.3,111.5,380.5,112,380.6,112.4
		z M381.9,117.6l-9.3,6.6c0.1-0.6,0.2-1.1,0.3-1.7l8.8-6.2C381.8,116.7,381.9,117.3,381.9,117.6z M381.4,114.9l-8.4,5.9
		c0-0.5,0-1.1-0.1-1.4l8.2-5.8C381.2,114.2,381.3,114.5,381.4,114.9z"/>
	<path class="st2" d="M401.9,99l0.2-0.1h2.2l-2,1.4L401.9,99z M402.7,101.5l3.7-2.6h2.3l-5.5,3.9L402.7,101.5z M411.6,99.9l-7.6,5.4
		l-0.4-1.3l7.2-5.1h0.5L411.6,99.9z M404.4,106.4l7.6-5.3l0.4,1.3l-7.6,5.3L404.4,106.4z M405.2,108.9l7.6-5.2l0.4,1.3l-7.5,5.2
		L405.2,108.9z M406,111.4l7.5-5.2l0.4,1.3l-7.4,5.2L406,111.4z M406.8,113.9l7.5-5l0.4,1.3l-7.4,5L406.8,113.9z M407.7,116.4
		l7.4-5.1l0.4,1.3l-7.3,5.1L407.7,116.4z M408.5,118.9l7.3-5l0.4,1.3l-7.2,5L408.5,118.9z M409.3,121.4l7.2-5l0.4,1.3l-7.2,5
		L409.3,121.4z M410.2,123.9l7.2-5l0.4,1.3l-7.1,5L410.2,123.9z M411,126.4l7-5l0.4,1.3l-7,5L411,126.4z M411.8,128.9l7-4.9l0.4,1.3
		l-7,4.9L411.8,128.9z M412.7,131.4l7-4.8l0.4,1.3l-6.9,4.8L412.7,131.4z M413.5,133.9l17.4-12.3l-0.7,2.1l-16.3,11.5L413.5,133.9z
		 M414.3,136.3l15.2-10.6l-0.6,2l-14.2,9.9L414.3,136.3z M415.1,138.8l13.1-9.1l-0.7,2l-12,8.4L415.1,138.8z M416,141.4l10.9-7.7
		l-0.7,2.1l-9.8,6.9L416,141.4z M418.1,143l7.5-5.3l-0.7,2l-4.6,3.3H418.1z M421.1,125.5l11.1-7.7l-0.6,2l-11.1,7.7L421.1,125.5z
		 M422.5,121.4l11.1-7.7l-0.7,2l-11.1,7.8L422.5,121.4z M422.5,143l1.7-1.2l-0.4,1.2H422.5z M423.8,117.5l16.1-11.2l0.4,1.1
		l-17.2,12L423.8,117.5z M425.2,113.4l13.8-9.6l0.4,1.2l-15,10.5L425.2,113.4z M426.5,109.4l11.7-8.2l0.4,1.3l-12.7,8.9L426.5,109.4
		z M437.8,100l-10.6,7.4l0.8-2.1l9.1-6.4h0.3L437.8,100z M429.3,101.3l3.5-2.4h2.1l-6.3,4.4L429.3,101.3z M430.1,98.9h0.4l-0.6,0.4
		L430.1,98.9z M433.9,113.5l6.8-4.8l0.4,1.3l-6.9,4.8L433.9,113.5z M434.7,115.9l6.9-4.8l0.4,1.2l-6.9,4.8L434.7,115.9z
		 M435.5,118.4l6.9-4.8l0.4,1.3l-6.9,4.8L435.5,118.4z M436.3,120.9l6.9-4.8l0.4,1.3l-6.9,4.8L436.3,120.9z M437.2,123.4l6.9-4.8
		l0.4,1.3l-6.9,4.8L437.2,123.4z M438,125.9l6.9-4.8l0.4,1.3l-6.9,4.8L438,125.9z M438.9,128.4l6.9-4.8l0.4,1.3l-6.9,4.8
		L438.9,128.4z M439.7,130.9l6.9-4.8l0.4,1.2l-6.9,4.8L439.7,130.9z M440.6,133.4l17.8-12.5l-0.7,2.1l-16.7,11.7L440.6,133.4z
		 M441.4,135.9l15.7-11.1l-0.7,2.1l-14.6,10.3L441.4,135.9z M442.2,138.4l13.5-9.4l-0.6,2l-12.5,8.7L442.2,138.4z M443,140.9
		l11.3-7.9l-0.7,2.1l-10.2,7.1L443,140.9z M444.5,143l8.6-6l-0.6,2l-5.8,4.1H444.5z M448.4,124.8l11.3-7.9l-0.7,2l-11.2,7.9
		L448.4,124.8z M448.8,143l2.9-2.1L451,143H448.8z M449.6,120.9l11.5-8.1l-0.7,2l-11.3,8L449.6,120.9z M450.8,117l11.6-8.1l-0.6,2
		l-11.5,8.1L450.8,117z M452,113.1l11.7-8.2l-0.6,2l-11.7,8.2L452,113.1z M453.1,109.3L465,101l-0.6,1.9l-11.8,8.3L453.1,109.3z
		 M465.7,98.9l-12,8.4l0.6-2l9.2-6.4H465.7z M455.5,101.4l3.6-2.5h2.2l-6.4,4.5L455.5,101.4z M456.2,98.9h0.6l-0.8,0.6L456.2,98.9z"
		/>
</g>
<g>
	<path class="st2" d="M192.3,45.2c0,0.2,0,0.3,0,0.5c0,0.3,0.1,0.6,0.1,0.9c0,0.4,0,0.9-1,1c-0.3,0-0.6,0-0.9,0
		c-0.6,0-1.5,0.1-2.6,0.1c-0.5,2.1-0.9,4-0.9,4.4c-0.3,0-2-0.2-2.1-1.3c0-0.3-0.2,0.7,1.1-3c-1.7,0.2-3.2,0.4-3.7,0.7
		c-0.1,0-0.1-0.2-0.1-0.2c-0.1,0-0.1-0.2-0.1-0.4c0-0.3,0-0.6,0.2-0.8c0.6-0.5,2.5,0.5,4.3-1c0.7-0.6,1-3.4,1-4.2
		c0.1,0.3,1.5-0.2,1.6,1.5c0,0.3-0.1,0.2-0.7,2.5C190.4,45.6,192.1,45.4,192.3,45.2z"/>
	<path class="st2" d="M283.1,44.4c0,0.2,0,0.3,0,0.5c0,0.3,0,0.6,0,0.9c0,0.4-0.2,0.9-1.2,0.8c-0.3,0-0.6,0-0.9-0.1
		c-0.6-0.1-1.5-0.1-2.6-0.3c-0.8,2-1.5,3.8-1.5,4.2c-0.3,0-2-0.5-1.9-1.5c0-0.3-0.3,0.7,1.5-2.8c-1.7-0.1-3.2-0.1-3.7,0.2
		c-0.1-0.1-0.1-0.2,0-0.2c-0.1-0.1,0-0.2,0-0.4c0-0.3,0.1-0.6,0.3-0.8c0.7-0.4,2.4,0.9,4.4-0.3c0.8-0.5,1.5-3.3,1.6-4
		c0.1,0.3,1.5,0,1.4,1.7c0,0.3-0.1,0.2-1.1,2.3C281.1,44.6,282.9,44.6,283.1,44.4z"/>
</g>
<g>
	<g>
		<path class="st0" d="M113.8,58.2C113.7,58.2,113.7,58.2,113.8,58.2c-0.1-0.1-0.1-0.1-0.2-0.2c0-0.2,0.1-0.3,0.3-0.3
			c0.2,0,1.8,1.9,6,2.4c0.4-3.4,1.1-6.2,1.6-8.1c0.1-0.5,0.1-0.7,0.2-1.2c0.1-0.7,0.2-1.5,0.1-1.9c0.3,0.1,3.4,0.4,3.7,2.1
			c0.2,1-0.2,0.5-2,9.2c0.5,0,1-0.1,1.5-0.2c4.5-0.9,9.3-4.1,11.1-9.5c0.6-1.7,1-3.3,0.8-4.4c-0.3-2-4.9-2.1-7.2-1.6
			c-2.3,0.4-4.1,1.2-5.7,2.1c-7.2,4.3-8.1,7.9-8.4,7.9c-1.6-0.8-2.2-1.7-2.4-2.5c-0.1-0.4-0.1-0.8,0-1.1c0-0.2,0.1-0.3,0.2-0.4
			c0.2-0.5,5.3-7.1,14.7-8.8c2.2-0.4,10.6-1.4,11.4,3.9c0.2,1,0.1,2.1-0.2,3c-2,7-7.6,11.5-13,12.5c-1,0.2-1.9,0.3-3,0.3
			c-0.4,1.8-0.8,3.6-1,4.7c-0.1,0.3-0.1,0.6-0.1,1.1c0,0.7,0,1.6,0.2,2.7c-0.2,0-2.4,0-2.8-1.9c-0.2-1.1-0.1-4.5,0.3-6.9
			c-0.2,0-0.4-0.1-0.6-0.1C115.1,60.2,113.7,58.1,113.8,58.2z"/>
		<path class="st0" d="M150.1,52.5c0.4,2.6-0.7,5.4-1.7,7.1c0.2,0,0.4,0.1,0.7,0c1.4-0.2,2.3-1.6,2.8-1.7c0.1,0,0.2,0.1,0.2,0.3
			c0.1,0.6-0.5,2.6-3.5,3.1c-0.5,0.1-0.9,0-1.5-0.1c-0.3,0.6-1.6,2.2-3.5,2.5c-3.1,0.5-4.8-2.3-5.2-4.4c-0.9-5.7,3.1-9.9,4-10.3
			c0.2,0,0.4,0,1.1,0.8c0.6-0.5,1.2-1.1,2.4-1.3c2.4-0.4,3.6,2.1,3.9,3C149.9,51.8,150,52.1,150.1,52.5z M145.6,60.6
			c-2.2-0.8-3-3.1-3.3-5.1c-0.1-0.4-0.1-0.9-0.1-1.4c-1.1,1.5-1.8,3.4-1.5,5.4c0.3,2,1.3,2.7,2.9,2.6
			C144,62.1,144.7,61.7,145.6,60.6z M147.5,54.2c-0.2-1.1-0.3-2.2-0.8-2.3c-1.1,0.2-1.9,2.9-1.6,4.6c0.1,0.8,0.6,2.4,1.6,2.5
			c0.5-0.9,0.8-2,0.9-3.3C147.6,55.3,147.6,54.7,147.5,54.2z"/>
		<path class="st0" d="M162.4,50.8c0.3,2.7-0.8,5.4-1.8,7c0.2,0,0.4,0.1,0.7,0c1.4-0.2,2.3-1.6,2.8-1.7c0.1,0,0.2,0.1,0.2,0.3
			c0.1,0.6-0.6,2.6-3.5,3c-0.5,0.1-0.9,0-1.5-0.1c-0.3,0.6-1.7,2.1-3.5,2.4c-3.1,0.4-4.8-2.4-5.1-4.5c-0.8-5.7,3.3-9.8,4.2-10.2
			c0.2,0,0.4,0,1.1,0.9c0.6-0.5,1.2-1.1,2.4-1.2c2.4-0.3,3.6,2.1,3.8,3.1C162.3,50.1,162.4,50.4,162.4,50.8z M157.8,58.9
			c-2.1-0.9-2.9-3.1-3.2-5.1c-0.1-0.4-0.1-0.9-0.1-1.4c-1.1,1.5-1.9,3.4-1.6,5.3c0.3,2,1.3,2.7,2.8,2.6
			C156.2,60.3,156.9,59.9,157.8,58.9z M159.9,52.5c-0.1-1.1-0.3-2.2-0.8-2.3c-1.1,0.2-1.9,2.9-1.7,4.6c0.1,0.8,0.6,2.4,1.5,2.6
			c0.5-0.9,0.8-2,0.9-3.3C159.9,53.5,159.9,52.9,159.9,52.5z"/>
		<path class="st0" d="M171.3,36.1c0.1,0.7-0.2,1.4-0.4,2.1c-1.3,3.6-6.3,18.1-5.8,21.9c0,0.2,0.1,0.4,0.2,0.4
			c0.4,0,1.8-1.3,3.8-5.4c0.3-0.3,0.5-0.5,0.6-0.5c0.1,0,0.1,0.1,0.1,0.3c0.2,1.4-3.3,7.8-4.9,8c-0.6,0.1-1.9,0.2-2.2-2
			c-0.6-4.6,2.6-18,4.4-23.9c0.1-0.4,0.1-0.9,0.3-1.3c0.2-0.7,0.3-1.4,0.3-1.9C167.9,33.7,171.1,34.6,171.3,36.1z"/>
	</g>
	<g>
		<path class="st0" d="M227.7,45.6c0-0.8-1.5-1.3-4.2-1.2c-2.8,0.1-5.4,0.7-7.3,1.2c-1,2.6-2.1,5.4-2.7,7.2c-0.1,0.3-0.2,0.6-0.3,1
			c-0.1,0.7-0.3,1.6-0.2,2.7c-0.2,0-2.3-0.3-2.5-2.3c-0.1-1.4,0.8-5.5,1.5-7.5c-0.4,0-1.7-2.2-1.8-2.9c0-0.6,2-0.9,3.1-1.2
			c0.4-1.1,0.7-1.9,1.1-2.9c0.1-0.5,0.2-0.7,0.4-1.2c0.2-0.7,0.4-1.4,0.4-1.9c0.3,0.2,3.3,0.8,3.4,2.6c0,0.7,0,0.8-0.7,2.3
			c1.2-0.2,2.3-0.3,3.5-0.4c1.2,0,2.4,0,3.6,0.2c0.7-0.9,1.3-2.2,1.2-3.4c-0.1-2.5-2.9-3.3-4.8-3.2c-3,0.1-5.2,1.4-6.8,2.1
			c-5.3,3.1-6.3,5.7-6.6,5.7c-1.6-1-2-2-2-2.9c0-0.3,0-0.7,0.1-1c0-0.2,0.1-0.3,0.2-0.4c0.3-0.6,4.1-5,11.6-6.4c0,0,0,0-0.1,0.1
			c0.7-0.1,1.5-0.2,2.3-0.3c4.3-0.2,8.4,1.9,8.5,5.9c0,1.3-0.7,3.1-1.6,4c2.6,0.8,3.6,1.6,3.6,3.8c0,2.4-2.2,5.9-3.8,7.9
			c0.3,0.1,0.6,0.2,0.7,0.1c0.1,0,0.1,0,0.1-0.1c0.1,0,0.1,0,0.1,0.1c0.1,0.1,0.2,0.2,0.2,0.2c0,0.2-0.1,0.3-0.2,0.3
			c-0.1,0.1-0.1,0.1-0.2,0.1c-0.3,0-0.6,0-1.3-0.1c-1.8,2.2-4.3,4.1-7,4.2c-2,0.1-4.2-0.8-4.2-2.2c-0.1-2.5,4.9-2.8,6.3-2.9
			c1.1,0,1.9,0,2.7,0C225.6,51.4,227.8,47.5,227.7,45.6z M223.3,54.2c-2.1,0.1-6.9,1-6.8,1.8c0,0.1,0.6,0.3,1.8,0.6
			C220.1,56.6,221.7,55.9,223.3,54.2z"/>
		<path class="st0" d="M247.3,49.3c0,0.6-2,7.4-5.4,7.4c-1.1,0-2.5-0.8-3-3.1c-0.6,0.7-1.6,2.1-4.1,2.1c-3.5,0-4.3-3.7-4.3-5.4
			c-0.1-4.2,3.4-9.6,8.3-9.6c1.7,0,2.5,0.6,3.4,1.1c0.2-0.2,0.2-0.5,0.2-0.7c0.2,0,2.8,1.5,2.8,2.8c0,0.6-0.3,1.1-0.6,1.7
			c0,0,0,0-0.1,0c-1.3,2.2-3.1,5.2-3.1,7.9c0,1.2,0.3,1.8,0.8,1.8c1.1,0,3-2,4.4-6.2c0-0.1,0.2-0.1,0.3-0.1
			C247.2,49.1,247.3,49.2,247.3,49.3z M240.6,45.1c-0.7-0.7-1.5-1.3-2.4-1.3c-2.5,0-5.8,3.6-5.7,6.9c0,1.6,0.4,3.6,2.9,3.6
			c1.3,0,2.4-0.8,3.3-1.9C238.7,50,239.7,47.1,240.6,45.1z"/>
		<path class="st0" d="M259.7,49.5c0,0.3-2.2,6.2-5.6,6.2c-1.4,0-2.9-1.4-2.9-4.1c0-2.2,0.8-4.6,1.7-6.6c-0.9,0.2-1.6,0.2-2.4,0.2
			c-0.4,0-0.7,0-1-0.1c-2.9,5.7-2.7,6.3-3.2,6.3c-0.3,0-0.5-0.1-0.5-0.3c0-0.1,0-0.1,0-0.2c0-0.1,0-0.1,0.1-0.1
			c0.6-1.5,1.7-4.3,2.2-6.4c-1.3-0.8-1.7-2.1-1.7-3c0-0.8,0.1-1.2,0.7-1.2c0.2,0,0.5-0.1,0.9,0.1c1.3,0.3,2.4,0.6,2.4,0.6
			c-0.2,0.5-0.2,0.5-0.4,0.7c0,0.2,1.5,0.4,2.6,0.4c0.7,0,1,0,1.6,0c0.3-0.4,0.5-0.8,0.7-1.2c0.4-0.7,0.7-1.4,0.9-2
			c0.1,0,2.6,1.5,2.6,2.8c-0.1,2.2-4.5,7-4.6,10.8c0,0.8,0.1,1.4,0.7,1.5c1.1,0,2.8-1.4,4.4-4.8c0,0,0.1,0,0.1-0.1
			c0.1,0,0.2,0,0.2,0.1C259.6,49.4,259.7,49.5,259.7,49.5z"/>
	</g>
	<g>
		<path class="st0" d="M336.1,63.9c-0.2,1.2-0.8,2-1.5,2.5c-0.4,0.3-0.8,0.6-1.3,0.8c-5.6,3.1-15,2-16.8,1.8
			c-11.8-1.4-4.9-4.9-4.9-4.9c-8.3-3.9-12.8-4.7-14.8-4.9c-0.5,0-0.8,0-1,0c-0.2,0-0.3,0-0.3,0c0-0.1,0-0.2,0-0.3
			c-4.4,3.5-7.4,4.1-9.3,4c-2.2-0.2-2.4-0.8-2.4-1.4c0.3-4.1,10.5-4.7,11.1-4.7c0,0,0.1,0,0.1,0c0.1,0,0.1,0,0.1,0c0,0,0,0-0.1,0.1
			c5.1-4.4,10.3-15.8,13.2-21.8c0.3,0.2,3.1,1.3,2.9,3.1c0,0.4-0.1,0.8-0.4,1.2c-2.6,4-6.8,10.8-10.3,14.7c-1.1,1.2-2.1,2-2.9,3
			c3.2,0.4,7,1.5,10,2.5c1.8,0.6,3.5,1.2,5.1,1.8c7.5,2.7-3.7,2.6,4.7,3.6c6.9,0.8,11.4,0.3,14.5-0.6c1.7-0.5,3.2-1.1,4.3-1.9
			C336.2,63,336.2,63.4,336.1,63.9z M292.7,59c-1.3,0-2.5,0.1-3.6,0.3c-1.8,0.3-3.7,0.9-4.1,2.1C287.2,62.5,290.9,60.4,292.7,59z"/>
		<path class="st0" d="M318,50c-0.3,2.7-2.1,5-3.5,6.4c0.2,0.1,0.4,0.2,0.7,0.2c1.4,0.2,2.7-1,3.1-0.9c0.1,0,0.2,0.1,0.1,0.3
			c-0.1,0.6-1.2,2.4-4.2,2c-0.5-0.1-0.9-0.2-1.4-0.4c-0.5,0.5-2.1,1.7-4,1.5c-3.1-0.3-4.1-3.4-3.9-5.6c0.6-5.7,5.6-8.7,6.5-8.9
			c0.2,0,0.3,0.1,0.9,1.1c0.7-0.4,1.4-0.7,2.6-0.6c2.4,0.3,3,2.9,2.9,3.9C318,49.3,318,49.6,318,50z M311.5,56.7
			c-1.9-1.4-2.1-3.8-1.9-5.7c0-0.4,0.2-0.9,0.3-1.4c-1.5,1.2-2.6,2.8-2.8,4.8c-0.2,2,0.6,2.9,2.1,3.2
			C309.6,57.7,310.3,57.5,311.5,56.7z M315,51c0.1-1.1,0.3-2.2-0.2-2.4c-1.2-0.1-2.6,2.3-2.8,4.1c-0.1,0.8,0,2.5,0.8,2.8
			c0.7-0.8,1.3-1.7,1.7-3C314.9,52,315,51.5,315,51z"/>
		<path class="st0" d="M333.4,55.7c-0.1,0.6-3,7-6.3,6.6c-1.5-0.2-2.9-2.1-2.5-4.7c-1.1,1.4-2.8,2.9-4.9,2.7
			c-1.4-0.2-2.8-1.8-2.5-4.4c0.4-3.6,3.3-8,4.3-9.4c0,0,0,0-0.1,0c0.3-0.4,0.5-0.7,0.8-1c0.5-0.6,0.8-1.2,1-1.6
			c0.2,0,2.5,1.8,2.3,3.2c-0.2,1.7-5.4,6.6-5.8,10.3c-0.1,0.9,0,1.6,0.9,1.7c1.1,0.1,2.8-0.8,4.5-3.5c0.8-2.5,2.4-4.9,3-5.8
			c0.2-0.4,0.4-0.7,0.7-1c0.4-0.6,0.7-1.2,0.9-1.6c0.2,0,2.6,1.9,2.4,3.2c-0.2,1.7-4.5,5.6-5,9c-0.2,1.2,0,1.9,0.5,1.9
			c1.1,0.1,3.2-1.6,5.2-5.5c0-0.1,0.2,0,0.3,0C333.3,55.5,333.4,55.6,333.4,55.7z"/>
		<path class="st0" d="M338.6,57.8c0.3-2,1-3.3,2.1-5.1c-1.8,2.3-5.6,7.2-6.3,8.8c0,0.1-1.2,2-2.3,1.9c-1.8-0.3-2-1.8-1.7-4
			c0.7-4.9,4.3-9.4,4.7-9.9c0.6-0.8,1.3-2.2,1.6-2.7c0.5,0.1,2.4,2,2.2,3.2c-0.4,2.5-5.3,5.6-5.9,9.9c0,0.3-0.1,0.5,0,0.7
			c9.5-12.9,10.7-10.8,11.9-13.6c0.2,0,2.4,1.9,2.2,3.2c0,0.2-0.3,1-0.6,1.2c-1.6,2.3-4.7,4.9-5.2,7.9c-0.1,0.8-0.1,1.4,0.6,1.6
			c1,0.2,3-1,5.1-4.1c0,0,0.1,0,0.1,0c0.1,0,0.2,0.1,0.3,0.2c0,0.1,0.1,0.1,0.1,0.1c0,0.2-3,5.9-6.3,5.4c-0.7-0.1-1.4-0.4-2-1.4
			C338.6,60.1,338.5,59.1,338.6,57.8z"/>
		<path class="st0" d="M361.6,53c-0.1,0.3-0.2,0.6-0.4,0.9c-2.5,3.4-5.7,7.6-8.1,11.8c2.9,0.7,6.1,1.6,5.7,4.1
			c-0.4,1.9-2.7,3.6-4.9,3.2c-1.9-0.4-3.6-2.3-3.6-4.7c-2.7-0.2-8-0.3-8.1,0.4c0-0.5,0-0.9,0-1.2c0.4-2.2,2.2-2.5,2.7-2.6
			c1.8,0,3.7,0.3,6.1,0.5c0.1-0.4,0.3-0.5,0.4-0.9c-0.7,0.2-1.5,0.4-2.6,0.2c-3.6-0.6-3.8-4.3-3.6-6.1c0.5-3.9,4.7-8.8,9.7-8.2
			c1.6,0.3,2.5,0.8,3.3,1.3c0.5-0.5,1-1,1.2-1.7c0.4,0.3,0.7,0.6,1,0.9c0.6,0.5,1,1.1,1.1,1.7C361.7,52.6,361.6,52.8,361.6,53z
			 M356.4,54.7c-0.5-0.6-1.3-1-2.2-1.2c-2.7-0.5-6.5,2.3-7,5.6c-0.3,1.7-0.2,3.8,2.3,4.2c0.7,0.1,2.4,0,2.5-0.5
			C353.5,59.8,355.1,56.9,356.4,54.7z M351,68.3c0.1,0.1,0.2,0.1,0.4,0.1c0.2,0.1,0.4,0.1,0.5,0.2c0.1,1.6,1.1,3,2.5,3.3
			c0.9,0.2,2.7-0.3,3-2c0.1-0.6-0.2-1.1-1.5-1.3C354.7,68.4,353.3,68.5,351,68.3z"/>
		<path class="st0" d="M371.9,63.9c-0.8,0.9-1.6,1.7-2.5,2.3c-1.6,1-3.8,2-6.4,1.5c-3.9-0.8-4.5-4.7-4.1-6.9c0.9-4.9,5.5-9,9.5-8.2
			c2.5,0.5,3.5,2.4,3.2,3.9c-0.6,3.1-4.1,5.1-7.6,4.4c-1.2-0.2-2-0.7-2.3-1.1c-0.4,0.6-0.6,1.2-0.7,1.9c-0.4,2,0.7,4.3,2.8,4.7
			c1.6,0.3,3.8-0.4,4.9-0.9c2.6-1.2,2.7-1.9,3-1.8c0.1,0,0.2,0,0.2,0.1C371.9,63.7,371.9,63.8,371.9,63.9z M362,58.9
			c0.1,0.1,0.3,0.1,0.7,0.2c2.3,0.4,4.8-1.5,5.1-2.7c0.1-0.5-0.1-0.8-0.7-0.9c-0.7-0.1-1.9,0.1-3.3,1.2
			C363.2,57.4,362.6,58.1,362,58.9z"/>
	</g>
</g>
</svg>
