<?xml version="1.0" encoding="utf-8"?>
<!-- Generator: Adobe Illustrator 21.0.0, SVG Export Plug-In . SVG Version: 6.00 Build 0)  -->
<svg version="1.1" id="Layer_1" xmlns="http://www.w3.org/2000/svg" xmlns:xlink="http://www.w3.org/1999/xlink" x="0px" y="0px"
	 viewBox="0 0 692.5 526.9" style="enable-background:new 0 0 692.5 526.9;" xml:space="preserve">
<style type="text/css">
	.st0{fill:#FFFFFF;}
	.st1{fill:#FFFFFF;stroke:#B8BBBE;stroke-width:0.5;stroke-miterlimit:10;}
</style>
<g>
	<path class="st0" d="M126.8,410.3c0,1.6-0.8,3.1-2.1,4c-1.7,1.2-3.6,2.5-5.8,3.9c-3.1,2.1-6.9,4.1-11.3,6.1
		c-4.4,2-9.4,3.7-14.9,5.1c-5.6,1.4-11.9,2.1-18.9,2.1c-9.8,0-18.5-1.5-26.3-4.6c-7.8-3-14.4-7.1-19.9-12.2
		c-5.5-5.1-9.7-11-12.6-17.8c-2.9-6.8-4.4-13.9-4.4-21.3c0-7.3,1.4-14.3,4.3-21c2.8-6.7,7-12.7,12.4-17.9c5.4-5.2,12.1-9.4,20-12.4
		c7.9-3,17-4.6,27.1-4.6c7,0,13.3,0.7,18.8,2c5.5,1.4,10.3,3,14.3,4.9c4.1,1.9,7.5,3.8,10.3,5.8c0.9,0.6,1.7,1.2,2.4,1.7
		c2.2,1.6,2.7,4.6,1.1,6.8l-4.8,6.7c-1.5,2-4.3,2.7-6.4,1.4c-4.7-2.9-9.8-5.4-15.1-7.5c-6.7-2.6-13.6-4-20.6-4
		c-7.6,0-14.3,1.1-20,3.1c-5.8,2.1-10.6,4.9-14.4,8.5c-3.9,3.6-6.7,7.7-8.6,12.3c-1.9,4.6-2.8,9.3-2.8,14.2c0,4.9,1,9.6,2.9,14.1
		c2,4.5,4.9,8.6,8.7,12.1c3.9,3.5,8.6,6.3,14.3,8.4c5.7,2.1,12.2,3.2,19.5,3.2c6.1,0,12.2-0.9,18.2-2.7c6-1.8,11.6-4.3,16.8-7.4
		v-16.1H83.5c-2.7,0-4.9-2.2-4.9-4.9v-8.1c0-2.7,2.2-4.9,4.9-4.9h38.4c2.7,0,4.9,2.2,4.9,4.9V410.3z"/>
	<path class="st0" d="M279.7,428.3h-10c-1.8,0-3.4-1-4.3-2.5l-10.6-19.5c-0.9-1.6-2.5-2.5-4.3-2.5h-58.4c-1.8,0-3.5,1-4.3,2.6
		l-10.3,19.4c-0.8,1.6-2.5,2.6-4.3,2.6H164c-3.7,0-6.1-4-4.3-7.2l51.6-95.5c0.9-1.6,2.5-2.6,4.3-2.6h12.1c1.8,0,3.4,1,4.3,2.5
		l52,95.5C285.8,424.3,283.4,428.3,279.7,428.3z M221.5,343.1l-23,42.7h45.9L221.5,343.1z"/>
	<path class="st0" d="M357.8,428.3h-8.1c-2.7,0-4.9-2.2-4.9-4.9v-82.5h-35.8c-2.7,0-4.9-2.2-4.9-4.9v-8.1c0-2.7,2.2-4.9,4.9-4.9h89
		c2.7,0,4.9,2.2,4.9,4.9v8.1c0,2.7-2.2,4.9-4.9,4.9h-35.4v82.5C362.7,426.1,360.5,428.3,357.8,428.3z"/>
	<path class="st0" d="M533.2,428.3h-84.9c-2.7,0-4.9-2.2-4.9-4.9v-95.5c0-2.7,2.2-4.9,4.9-4.9h82.9c2.7,0,4.9,2.2,4.9,4.9v8.1
		c0,2.7-2.2,4.9-4.9,4.9h-69.9v24.2h36.2c2.7,0,4.9,2.2,4.9,4.9v8.1c0,2.7-2.2,4.9-4.9,4.9h-36.2v27.4h71.9c2.7,0,4.9,2.2,4.9,4.9
		v8.1C538.1,426.1,535.9,428.3,533.2,428.3z"/>
	<path class="st0" d="M668.7,345.4c-1.3,2.4-4.3,3.4-6.7,2c-0.9-0.5-1.9-1-2.8-1.5c-2.6-1.4-5.7-2.7-9.1-4c-3.5-1.2-7.4-2.2-11.8-3
		c-4.4-0.8-9.5-1.2-15.3-1.2c-9.8,0-17.1,1.2-22,3.7c-4.9,2.4-7.4,5.9-7.4,10.4c0,2.6,0.3,4.7,1,6.4c0.7,1.7,2.2,3,4.6,4.1
		c2.4,1,5.8,1.8,10.3,2.2c4.5,0.5,10.5,0.7,18.1,0.7c11.9,0,21.4,0.8,28.3,2.5c7,1.7,12.3,4,16,6.8c3.7,2.8,6,6.1,7.1,9.9
		c1.1,3.7,1.6,7.6,1.6,11.7c0,7.6-1.6,13.7-4.8,18.4c-3.2,4.7-7.3,8.3-12.3,10.8c-5,2.5-10.6,4.2-16.8,5.1c-6.2,0.9-12.2,1.3-18,1.3
		c-8.9,0-16.9-0.7-23.8-2.1c-6.9-1.4-12.9-3.1-18-5c-5.1-1.9-9.2-3.9-12.5-5.9c-1.4-0.9-2.6-1.7-3.8-2.4c-2.1-1.4-2.8-4.2-1.6-6.4
		l3.9-7.2c1.3-2.5,4.4-3.3,6.9-1.8c1.6,1,3.3,1.9,5,2.9c3.3,1.8,6.9,3.5,11,5c4.1,1.5,8.8,2.7,14.1,3.7c5.4,0.9,11.8,1.4,19.2,1.4
		c4.7,0,9.1-0.3,13-0.8c3.9-0.5,7.3-1.4,10.2-2.6c2.8-1.2,5-2.8,6.6-4.9c1.6-2,2.3-4.5,2.3-7.5c0-3.4-0.6-6-1.7-7.8
		c-1.2-1.8-3.4-3.2-6.7-4.2c-3.3-0.9-8-1.6-14-1.9c-6-0.3-14-0.6-23.9-0.9c-6-0.1-11.4-0.7-16.5-1.7c-5-1-9.3-2.6-12.9-4.9
		c-3.6-2.2-6.4-5.2-8.3-8.8c-2-3.7-2.9-8.3-2.9-13.8c0-4.5,0.9-8.7,2.6-12.8c1.8-4.1,4.6-7.7,8.4-10.8c3.9-3.1,8.9-5.6,15-7.5
		c6.2-1.9,13.6-2.8,22.5-2.8c6.4,0,12.3,0.6,17.9,1.7c5.6,1.2,10.6,2.5,15,4c4.5,1.5,8.3,3,11.6,4.6c1.1,0.5,2.1,1,3.1,1.5
		c2.5,1.2,3.4,4.2,2.2,6.6L668.7,345.4z"/>
</g>
<g>
	<path class="st0" d="M356.5,91.7c-3.6-3.3-6.3-7.2-8.2-11.6c-1.8-4.1-2.7-8.4-2.8-12.9c-0.1,4.5-1,8.8-2.8,12.9
		c-1.9,4.4-4.6,8.3-8.2,11.6c-3.6,3.3-7.9,6-13,8c-4.7,1.8-10,2.8-15.8,2.9c5.8,0.1,11.1,1.1,15.8,2.9c5.1,2,9.4,4.6,13,8
		c3.6,3.3,6.3,7.2,8.2,11.6c1.8,4.1,2.7,8.4,2.8,12.9c0.1-4.5,1-8.8,2.8-12.9c1.9-4.4,4.6-8.3,8.2-11.6c3.6-3.3,7.9-6,13-8
		c4.7-1.8,10-2.8,15.8-2.9c-5.8-0.1-11.1-1.1-15.8-2.9C364.4,97.7,360.1,95,356.5,91.7z"/>
	<path class="st0" d="M250.3,8.6v188h190.3V8.6H250.3z M421.4,84.3c0,3.8-1.9,7.4-5.1,9.5c0,0-0.1,0.1-0.1,0.1c-2,1.4-4.5,2.7-7.4,4
		c-2.9,1.3-6.1,2.4-9.8,3.3c-3.1,0.8-6.5,1.2-10.2,1.3c3.7,0.1,7.2,0.6,10.2,1.3c3.6,0.9,6.9,2,9.8,3.3c2.9,1.3,5.3,2.6,7.4,4
		c0,0,0.1,0.1,0.1,0.1c3.2,2.1,5.1,5.7,5.1,9.5v15.9c0,3.5-2.8,6.3-6.3,6.3h-19.4c-3.2,0-5.8-2.6-5.8-5.8v-0.1
		c0-3.2,2.6-5.8,5.8-5.8h14v-10.5c-3.4-2-7-3.7-11-4.8c-3.9-1.2-7.9-1.8-11.9-1.8c-4.8,0-9,0.7-12.7,2.1c-3.7,1.4-6.8,3.2-9.4,5.5
		c-2.5,2.3-4.4,4.9-5.7,7.9c-1.3,3-1.9,6-1.9,9.2c0,3.2,0.6,6.3,1.9,9.3c1.2,3,3.1,5.7,5.6,8c2.5,2.3,5.7,4.2,9.4,5.6
		c3.8,1.4,8.1,2.1,13.1,2.1c4.6,0,9.1-0.9,13.5-2.6c2.9-1.2,5.7-2.5,8.4-4c2.3-1.3,5.1-0.7,6.6,1.5l1,1.5c1.6,2.3,1.1,5.4-1.2,7.1
		c0,0,0,0-0.1,0c-1.8,1.3-4.1,2.5-6.7,3.8c-2.7,1.2-5.8,2.3-9.4,3.2c-3.6,0.9-7.7,1.3-12.3,1.3c-6.6,0-12.6-1-17.7-3
		c-5.2-2-9.5-4.7-13.1-8.1c-3.5-3.4-6.2-7.3-8.1-11.7c-1.7-4.1-2.6-8.3-2.7-12.7c-0.1,4.4-1,8.6-2.7,12.7c-1.9,4.4-4.6,8.3-8.1,11.7
		c-3.5,3.4-7.9,6.1-13.1,8.1c-5.2,2-11.1,3-17.7,3c-4.6,0-8.7-0.4-12.3-1.3c-3.6-0.9-6.7-1.9-9.4-3.2c-2.7-1.2-4.9-2.5-6.7-3.8
		c0,0,0,0-0.1,0c-2.3-1.6-2.8-4.8-1.2-7.1l1-1.5c1.5-2.1,4.4-2.8,6.6-1.5c2.7,1.5,5.5,2.9,8.4,4c4.4,1.7,8.9,2.6,13.5,2.6
		c5,0,9.3-0.7,13.1-2.1c3.8-1.4,6.9-3.2,9.4-5.6c2.5-2.3,4.4-5,5.6-8c1.2-3,1.9-6.1,1.9-9.3c0-3.2-0.6-6.3-1.9-9.2
		c-1.3-3-3.2-5.6-5.7-7.9c-2.5-2.3-5.6-4.1-9.4-5.5c-3.7-1.4-8-2.1-12.7-2.1c-4,0-7.9,0.6-11.9,1.8c-3.9,1.2-7.6,2.8-11,4.8v10.5h14
		c3.2,0,5.8,2.6,5.8,5.8v0.1c0,3.2-2.6,5.8-5.8,5.8h-19.4c-3.5,0-6.3-2.8-6.3-6.3v-15.9c0-3.8,1.9-7.4,5.1-9.5c0,0,0.1-0.1,0.1-0.1
		c2-1.4,4.5-2.7,7.4-4c2.9-1.3,6.1-2.4,9.8-3.3c3.1-0.8,6.5-1.2,10.2-1.3c-3.7-0.1-7.2-0.6-10.2-1.3c-3.6-0.9-6.9-2-9.8-3.3
		c-2.9-1.3-5.3-2.6-7.4-4c0,0-0.1-0.1-0.1-0.1c-3.2-2.1-5.1-5.7-5.1-9.5V68.4c0-3.5,2.8-6.3,6.3-6.3h19.4c3.2,0,5.8,2.6,5.8,5.8V68
		c0,3.2-2.6,5.8-5.8,5.8h-14v10.5c3.4,2,7,3.7,11,4.8c3.9,1.2,7.9,1.8,11.9,1.8c4.8,0,9-0.7,12.7-2.1c3.7-1.4,6.8-3.2,9.4-5.5
		c2.5-2.3,4.4-4.9,5.7-7.9c1.3-3,1.9-6,1.9-9.2c0-3.2-0.6-6.3-1.9-9.3c-1.2-3-3.1-5.7-5.6-8c-2.5-2.3-5.7-4.2-9.4-5.6
		c-3.8-1.4-8.1-2.1-13.1-2.1c-4.6,0-9.1,0.9-13.5,2.6c-2.9,1.2-5.7,2.5-8.4,4c-2.3,1.3-5.1,0.7-6.6-1.5l-1-1.5
		c-1.6-2.3-1.1-5.4,1.2-7.1c0,0,0,0,0.1,0c1.8-1.3,4.1-2.5,6.7-3.8c2.7-1.2,5.8-2.3,9.4-3.2c3.6-0.9,7.7-1.3,12.3-1.3
		c6.6,0,12.6,1,17.7,3c5.2,2,9.5,4.7,13.1,8.1c3.5,3.4,6.2,7.3,8.1,11.7c1.7,4.1,2.6,8.3,2.7,12.7c0.1-4.4,1-8.6,2.7-12.7
		c1.9-4.4,4.6-8.3,8.1-11.7c3.5-3.4,7.9-6.1,13.1-8.1c5.2-2,11.1-3,17.7-3c4.6,0,8.7,0.4,12.3,1.3c3.6,0.9,6.7,1.9,9.4,3.2
		c2.7,1.2,4.9,2.5,6.7,3.8c0,0,0,0,0.1,0c2.3,1.6,2.8,4.8,1.2,7.1l-1,1.5c-1.5,2.1-4.4,2.8-6.6,1.5c-2.7-1.5-5.5-2.9-8.4-4
		c-4.4-1.7-8.9-2.6-13.5-2.6c-5,0-9.3,0.7-13.1,2.1c-3.8,1.4-6.9,3.2-9.4,5.6c-2.5,2.3-4.4,5-5.6,8c-1.2,3-1.9,6.1-1.9,9.3
		c0,3.2,0.6,6.3,1.9,9.2c1.3,3,3.2,5.6,5.7,7.9c2.5,2.3,5.6,4.1,9.4,5.5c3.7,1.4,8,2.1,12.7,2.1c4,0,7.9-0.6,11.9-1.8
		c3.9-1.2,7.6-2.8,11-4.8V73.8h-14c-3.2,0-5.8-2.6-5.8-5.8v-0.1c0-3.2,2.6-5.8,5.8-5.8h19.9c3.2,0,5.8,2.6,5.8,5.8V84.3z"/>
</g>
<g>
	<path class="st0" d="M109.8,507.8h-3.7v-14.4h-20v14.4h-3.6v-31.1h3.6v13h20v-13h3.7V507.8z"/>
	<path class="st0" d="M124.3,492.3c0-2.2,0.4-4.3,1.3-6.2c0.8-2,2-3.7,3.5-5.2c1.5-1.5,3.3-2.7,5.3-3.5c2-0.9,4.3-1.3,6.7-1.3
		c2.4,0,4.6,0.4,6.6,1.3c2,0.9,3.8,2,5.3,3.5c1.5,1.5,2.7,3.2,3.5,5.2c0.8,2,1.3,4,1.3,6.2c0,2.2-0.4,4.3-1.3,6.2
		c-0.8,2-2,3.7-3.5,5.2c-1.5,1.5-3.3,2.7-5.3,3.5c-2,0.9-4.3,1.3-6.6,1.3s-4.6-0.4-6.6-1.3c-2-0.9-3.8-2-5.3-3.5
		c-1.5-1.5-2.7-3.2-3.5-5.2C124.7,496.5,124.3,494.5,124.3,492.3z M127.9,492.3c0,1.7,0.3,3.3,1,4.9c0.7,1.5,1.6,2.9,2.7,4
		c1.2,1.1,2.5,2,4.1,2.7c1.6,0.7,3.3,1,5.2,1c1.9,0,3.6-0.3,5.2-1s3-1.6,4.1-2.7c1.2-1.1,2.1-2.5,2.7-4c0.7-1.5,1-3.2,1-4.9
		c0-1.7-0.3-3.3-1-4.9c-0.7-1.5-1.6-2.9-2.7-4c-1.2-1.1-2.5-2.1-4.1-2.7c-1.6-0.7-3.3-1-5.2-1c-1.9,0-3.6,0.3-5.2,1
		c-1.6,0.7-3,1.6-4.1,2.7c-1.2,1.1-2.1,2.5-2.7,4C128.3,489,127.9,490.6,127.9,492.3z"/>
	<path class="st0" d="M183.4,507.8h-3.7v-27.5h-11.4v-3.7h26.4v3.7h-11.4V507.8z"/>
	<path class="st0" d="M233.8,507.8h-26.5v-31.1h25.6v3.7H211v9.5h11.5v3.7H211v10.7h22.8V507.8z"/>
	<path class="st0" d="M270.4,507.8h-23.2v-31.1h3.7v27.5h19.5V507.8z"/>
	<path class="st0" d="M356.2,507.8h-4.4l-11-17.5l-8.5,8.1v9.4h-3.6v-31.1h3.6v17l17.3-17h4.9l-11,10.9L356.2,507.8z"/>
	<path class="st0" d="M393.4,507.8h-26.5v-31.1h25.5v3.7h-21.9v9.5h11.5v3.7h-11.5v10.7h22.8V507.8z"/>
	<path class="st0" d="M418,507.8h-3.6v-14.4l-13.1-16.7h4.7l10.3,13.1l10.3-13.1h4.7L418,493.4V507.8z"/>
	<path class="st0" d="M486.5,507.8h-3.3l-6.7-24.1h-0.1l-6.3,24.1h-3.3l-10.6-31.1h3.7l8.6,24.7h0.1l6.1-24.7h3.5l6.7,24.7h0.1
		l8-24.7h3.7L486.5,507.8z"/>
	<path class="st0" d="M533.6,507.8h-26.5v-31.1h25.6v3.7h-21.9v9.5h11.5v3.7h-11.5v10.7h22.8V507.8z"/>
	<path class="st0" d="M561.2,489.6c1.4,0,2.9,0.1,4.3,0.4s2.7,0.8,3.8,1.5c1.1,0.7,2,1.6,2.7,2.8c0.7,1.2,1,2.6,1,4.3
		c0,1.7-0.4,3.2-1.2,4.4c-0.8,1.2-1.9,2.3-3.3,3.1c-1.4,0.8-3,1.4-4.7,1.8c-1.8,0.4-3.6,0.6-5.5,0.6c-2.4,0-4.4-0.3-6.2-0.8
		c-1.7-0.5-3.2-1.1-4.5-1.8s-2.2-1.5-3-2.2s-1.4-1.4-1.9-1.9l2.6-2.6c0.5,0.4,1,0.9,1.7,1.6c0.7,0.6,1.5,1.3,2.5,1.8
		c1,0.6,2.2,1.1,3.7,1.5c1.4,0.4,3.1,0.6,5.2,0.6c1.7,0,3.3-0.2,4.7-0.5c1.4-0.3,2.5-0.8,3.5-1.3c0.9-0.6,1.7-1.2,2.2-2
		c0.5-0.8,0.7-1.6,0.7-2.5c0-1-0.2-1.8-0.7-2.5c-0.4-0.7-1-1.2-1.7-1.7c-0.7-0.4-1.5-0.7-2.3-0.9c-0.8-0.2-1.6-0.3-2.4-0.3h-6.6
		c-1.5,0-2.9-0.1-4.2-0.4c-1.3-0.3-2.5-0.7-3.5-1.3c-1-0.6-1.8-1.4-2.3-2.4c-0.6-1-0.9-2.2-0.9-3.7c0-1.1,0.3-2.2,0.8-3.3
		c0.5-1.1,1.3-2.1,2.4-3c1.1-0.9,2.5-1.7,4.2-2.2s3.7-0.9,6.1-0.9c1.8,0,3.4,0.2,4.8,0.6c1.4,0.4,2.7,0.8,3.8,1.3
		c1.1,0.5,2,1,2.7,1.5s1.3,0.9,1.7,1.2l-2.3,2.9c-0.6-0.4-1.2-0.8-1.8-1.2c-0.7-0.4-1.4-0.9-2.3-1.2c-0.9-0.4-1.8-0.7-2.9-1
		c-1.1-0.2-2.3-0.4-3.8-0.4c-1.7,0-3.2,0.2-4.5,0.6c-1.2,0.4-2.2,0.8-3,1.4c-0.8,0.6-1.3,1.2-1.7,1.8s-0.5,1.3-0.5,1.9
		c0,1.1,0.3,1.9,0.9,2.4c0.6,0.6,1.3,1,2.2,1.2c0.9,0.3,1.9,0.4,2.9,0.5c1.1,0,2,0.1,3,0.1H561.2z"/>
	<path class="st0" d="M597,507.8h-3.7v-27.5H582v-3.7h26.4v3.7H597V507.8z"/>
</g>
<g>
	<path class="st0" d="M305.7,275.8h-3.7v-27.5h-11.4v-3.7h26.4v3.7h-11.4V275.8z"/>
	<path class="st0" d="M357.4,275.8h-3.7v-14.4h-20v14.4h-3.6v-31.1h3.6v13h20v-13h3.7V275.8z"/>
	<path class="st0" d="M400.2,275.8h-26.5v-31.1h25.6v3.7h-21.9v9.5h11.5v3.7h-11.5v10.7h22.8V275.8z"/>
</g>
<line class="st1" x1="296.1" y1="515.2" x2="296.1" y2="469.1"/>
</svg>
