<?xml version="1.0" encoding="utf-8"?>
<!-- Generator: Adobe Illustrator 21.0.0, SVG Export Plug-In . SVG Version: 6.00 Build 0)  -->
<svg version="1.1" id="Layer_1" xmlns="http://www.w3.org/2000/svg" xmlns:xlink="http://www.w3.org/1999/xlink" x="0px" y="0px"
	 viewBox="0 0 365.1 157.2" style="enable-background:new 0 0 365.1 157.2;" xml:space="preserve">
<style type="text/css">
	.st0{fill:#008CC1;}
	.st1{fill:#E24301;}
	.st2{fill:#003B4C;}
</style>
<g>
	<path class="st0" d="M43.4,11.7H9.7v58.4V146h21.1v-17.5V87.7v0h12.6c11.4,0,20.8-3.3,27.7-8.8c8.7-6.9,13.5-17.3,13.5-29.2
		C84.6,28.3,69,11.7,43.4,11.7z M30.8,29.3h10.9c13.8,0,21.6,7.5,21.6,20.4s-7.8,20.4-21.6,20.4H30.8V29.3z"/>
	<path class="st1" d="M41.6,87.7c13.8,0,21.6,7.5,21.6,20.4s-7.8,20.4-21.6,20.4H30.8V146h14.3c24.6-0.7,39.5-17,39.5-37.9
		c0-11.9-4.8-22.3-13.5-29.2c-6.9,5.5-16.3,8.8-27.7,8.8L41.6,87.7z"/>
	<path class="st2" d="M45.1,148H28.8v-21.5h12.8c12.6,0,19.6-6.5,19.6-18.4c0-11.9-7-18.4-19.6-18.4l0-3.9l1.8,0
		c10.5,0,19.6-2.9,26.5-8.4l1.2-1l1.2,1c9.2,7.3,14.2,18.2,14.2,30.7C86.5,131.2,69.9,147.2,45.1,148L45.1,148z M32.7,144H45
		c22.5-0.7,37.6-15.1,37.6-35.9c0-10.8-4.1-20.2-11.6-26.7c-4.7,3.4-10.3,5.8-16.5,7.1c6.8,3.5,10.7,10.3,10.7,19.6
		c0,14-8.8,22.3-23.5,22.3h-8.9V144z"/>
	<path class="st2" d="M32.7,148h-25V9.8h35.7c25.4,0,43.2,16.4,43.2,39.9c0,12.5-5.1,23.4-14.2,30.7c-7.6,6-17.6,9.2-28.9,9.2H32.7
		V148z M11.6,144h17.2V85.8l2,0h12.6c10.4,0,19.6-2.9,26.5-8.3c8.2-6.5,12.8-16.4,12.8-27.7c0-21.5-15.8-36-39.2-36H11.6V144z
		 M41.6,72.1H28.8V27.4h12.8c14.7,0,23.5,8.4,23.5,22.4C65.1,63.7,56.3,72.1,41.6,72.1z M32.7,68.1h8.9c12.6,0,19.6-6.5,19.6-18.4
		c0-11.9-7-18.4-19.6-18.4h-8.9V68.1z"/>
	<polygon class="st1" points="129.3,56.5 136.6,71.2 152.9,73.6 141.1,85.1 143.9,101.3 129.3,93.6 114.7,101.3 117.5,85.1 
		105.7,73.6 122,71.2 	"/>
	<path class="st2" d="M146.5,104.9l-17.2-9l-17.2,9l3.3-19.1l-13.9-13.5l19.2-2.8l8.6-17.4l8.6,17.4l19.2,2.8l-13.9,13.5
		L146.5,104.9z M129.3,91.4l12,6.3L139,84.4l9.7-9.4L135.3,73l-6-12.1l-6,12.1L110,75l9.7,9.4l-2.3,13.3L129.3,91.4z"/>
	<path class="st0" d="M186.9,15h-9.6V8.8h26.5V15h-9.6v29.6h-7.4V15z"/>
	<path class="st2" d="M195.5,45.8h-9.8V16.3h-9.6V7.6h29v8.7h-9.6V45.8z M188.2,43.4h4.9V13.8h9.6V10h-24v3.8h9.6V43.4z"/>
	<path class="st0" d="M218.2,8.8h7.4v16h12.8v-16h7.4v35.8h-7.4V31h-12.8v13.6h-7.4V8.8z"/>
	<path class="st2" d="M247,45.8h-9.8V32.2h-10.3v13.6H217V7.6h9.8v16h10.3v-16h9.8V45.8z M239.6,43.4h4.9V10h-4.9v16h-15.3V10h-4.9
		v33.4h4.9V29.8h15.3V43.4z"/>
	<path class="st0" d="M262.7,8.8h22V15H270v9.6h12.3v6.2H270v7.5h15.1v6.2h-22.5V8.8z"/>
	<path class="st2" d="M286.4,45.8h-24.9V7.6h24.5v8.7h-14.6v7.2h12.3v8.7h-12.3v5h15.1V45.8z M263.9,43.4h20v-3.8h-15.1v-9.9h12.3
		v-3.8h-12.3V13.8h14.6V10h-19.5V43.4z"/>
	<path class="st0" d="M179.9,59.6h12.4c8.1,0,12.6,4.4,12.6,10.2c0,2.9-1.5,6.1-4.6,7.5c3.7,1.1,6.2,4.3,6.2,8.1
		c0,6.5-4.1,10-13.6,10h-13.1V59.6z M192.1,65.7h-4.8v9.1h4.8c4,0,5.5-1.7,5.5-4.6C197.6,67.4,196.1,65.7,192.1,65.7z M187.3,80.9
		v8.3h6.3c3.9,0,5.3-1.5,5.3-4.1c0-2.6-1.4-4.2-5.3-4.2H187.3z"/>
	<path class="st2" d="M193,96.6h-14.3V58.4h13.7c4.2,0,7.7,1.1,10.1,3.2c2.4,2,3.7,5,3.7,8.2c0,2.3-0.9,5.3-3.2,7.3
		c3,1.7,4.8,4.9,4.8,8.3C207.8,92.9,202.8,96.6,193,96.6z M181.2,94.2H193c11.1,0,12.3-5,12.3-8.7c0-3.2-2.1-6-5.3-7l-3.1-1l3-1.3
		c2.6-1.2,3.8-4,3.8-6.4c0-5.5-4.5-9-11.4-9h-11.2V94.2z M193.6,90.5h-7.6V79.7h7.6c5.4,0,6.6,3,6.6,5.4
		C200.2,89.6,196.6,90.5,193.6,90.5z M188.5,88h5.1c3.8,0,4.1-1.5,4.1-2.9c0-2.7-2.1-3-4.1-3h-5.1V88z M192.1,76h-6V64.5h6
		c3.1,0,6.7,1,6.7,5.7C198.8,75,195.2,76,192.1,76z M188.5,73.5h3.6c3.5,0,4.2-1.3,4.2-3.3c0-1.6-0.3-3.3-4.2-3.3h-3.6V73.5z"/>
	<path class="st0" d="M220.7,59.6h7.4v29.6h14.4v6.2h-21.7V59.6z"/>
	<path class="st2" d="M243.7,96.6h-24.2V58.4h9.8v29.6h14.4V96.6z M221.9,94.2h19.3v-3.8h-14.4V60.8h-4.9V94.2z"/>
	<path class="st0" d="M264.1,59.6v35.8h-7.4V59.6H264.1z"/>
	<path class="st2" d="M265.4,96.6h-9.8V58.4h9.8V96.6z M258,94.2h4.9V60.8H258V94.2z"/>
	<path class="st0" d="M281.3,59.6h5.4l17,22.5V59.6h7.4v35.8h-5.4l-17-22.5v22.5h-7.4V59.6z"/>
	<path class="st2" d="M312.4,96.6h-7.3l-15.2-20.1v20.1h-9.8V58.4h7.3l15.2,20v-20h9.8V96.6z M306.3,94.2h3.6V60.8H305v24.9
		l-18.9-24.9h-3.6v33.4h4.9V69.2L306.3,94.2z"/>
	<path class="st0" d="M340,95.4h-12V59.6h12c11.6,0,19.4,6.6,19.4,17.9C359.5,88.9,351.6,95.4,340,95.4z M340.1,65.8h-4.7v23.3h4.7
		c6.7,0,11.9-3.9,11.9-11.6C352,69.7,346.8,65.8,340.1,65.8z"/>
	<path class="st2" d="M340,96.6h-13.2V58.4H340c6.1,0,11.2,1.7,14.9,5c3.8,3.4,5.8,8.3,5.8,14.1c0,5.9-2,10.8-5.8,14.2
		C351.3,94.9,346.1,96.6,340,96.6z M329.3,94.2H340c5.5,0,10.1-1.5,13.3-4.4c3.2-2.9,5-7.2,5-12.3c0-5.1-1.7-9.4-5-12.3
		c-3.2-2.9-7.8-4.4-13.3-4.4h-10.7V94.2z M340.1,90.4h-5.9V64.6h5.9c8,0,13.2,5.1,13.2,12.9C353.2,85.3,348.1,90.4,340.1,90.4z
		 M336.6,87.9h3.4c3.1,0,5.8-0.9,7.7-2.6c2-1.8,3-4.5,3-7.8c0-6.6-4-10.5-10.7-10.5h-3.4V87.9z"/>
	<path class="st0" d="M187.3,136.9v9.3h-7.4v-35.8h11.8c9,0,14.4,5.8,14.4,13.3c0,7.5-5.4,13.3-14.4,13.3H187.3z M191.1,116.5h-3.8
		v14.2h3.8c4.8,0,7.5-2.6,7.5-7.1S195.9,116.5,191.1,116.5z"/>
	<path class="st2" d="M188.5,147.4h-9.8v-38.3h13c9.2,0,15.6,6,15.6,14.5c0,8.5-6.4,14.5-15.6,14.5h-3.2V147.4z M181.2,145h4.9v-9.3
		h5.6c7.9,0,13.2-4.8,13.2-12c0-7.2-5.3-12-13.2-12h-10.5V145z M191.1,132h-5v-16.7h5c5.5,0,8.8,3.1,8.8,8.3
		C199.8,128.9,196.6,132,191.1,132z M188.5,129.5h2.6c2.9,0,6.3-1,6.3-5.9c0-4.9-3.4-5.9-6.3-5.9h-2.6V129.5z"/>
	<path class="st0" d="M227.5,110.4v35.8h-7.4v-35.8H227.5z"/>
	<path class="st2" d="M228.8,147.4h-9.8v-38.3h9.8V147.4z M221.4,145h4.9v-33.4h-4.9V145z"/>
	<path class="st0" d="M270.1,118c-2.8-1.4-5.5-1.9-8.6-1.9c-6.7,0-11.8,4.7-11.8,12.2c0,7.7,5.8,12.2,12.6,12.2
		c1.5,0,3.2-0.2,4.4-0.6v-6h-7.3v-6.2H274v16.8c-3.7,1.7-7.7,2.3-12,2.3c-11.5,0-19.9-7.5-19.9-18.5c0-10.6,7.9-18.5,19.4-18.5
		c4,0,7.7,0.8,10.7,2.4L270.1,118z"/>
	<path class="st2" d="M262,148c-5.9,0-11.3-1.9-15.1-5.5c-3.9-3.6-6-8.7-6-14.3c0-11.4,8.7-19.8,20.7-19.8c4.3,0,8.2,0.9,11.3,2.5
		l1,0.5l-3.1,8.1l-1.2-0.6c-2.5-1.2-4.9-1.8-8.1-1.8c-6.3,0-10.6,4.4-10.6,10.9c0,6.5,4.7,11,11.4,11c1.2,0,2.3-0.1,3.2-0.3v-3.9
		h-7.3v-8.7h17.1v18.9l-0.7,0.3C271,147.3,266.9,148,262,148z M261.6,111c-5.2,0-9.9,1.8-13.2,4.9c-3.2,3.1-5,7.5-5,12.3
		c0,10.2,7.7,17.3,18.6,17.3c4.2,0,7.7-0.6,10.8-1.9v-14.8h-12.2v3.8h7.3v8.1l-0.8,0.3c-1.6,0.5-3.7,0.6-4.8,0.6
		c-3.8,0-7.2-1.3-9.7-3.6c-2.7-2.5-4.1-5.9-4.1-9.9c0-7.9,5.4-13.4,13.1-13.4c3,0,5.5,0.5,8,1.5l1.4-3.6
		C268.2,111.6,265.1,111,261.6,111z"/>
</g>
</svg>
